ISO-10303-21;
HEADER;
FILE_DESCRIPTION(('Open CASCADE Model'),'2;1');
FILE_NAME('Open CASCADE Shape Model','2026-06-02T21:39:02',('Author'),(
    'Open CASCADE'),'Open CASCADE STEP processor 7.8','Open CASCADE 7.8'
  ,'Unknown');
FILE_SCHEMA(('AUTOMOTIVE_DESIGN { 1 0 10303 214 1 1 1 1 }'));
ENDSEC;
DATA;
#1 = APPLICATION_PROTOCOL_DEFINITION('international standard',
  'automotive_design',2000,#2);
#2 = APPLICATION_CONTEXT(
  'core data for automotive mechanical design processes');
#3 = SHAPE_DEFINITION_REPRESENTATION(#4,#10);
#4 = PRODUCT_DEFINITION_SHAPE('','',#5);
#5 = PRODUCT_DEFINITION('design','',#6,#9);
#6 = PRODUCT_DEFINITION_FORMATION('','',#7);
#7 = PRODUCT('Open CASCADE STEP translator 7.8 2',
  'Open CASCADE STEP translator 7.8 2','',(#8));
#8 = PRODUCT_CONTEXT('',#2,'mechanical');
#9 = PRODUCT_DEFINITION_CONTEXT('part definition',#2,'design');
#10 = ADVANCED_BREP_SHAPE_REPRESENTATION('',(#11,#15),#1347);
#11 = AXIS2_PLACEMENT_3D('',#12,#13,#14);
#12 = CARTESIAN_POINT('',(0.,0.,0.));
#13 = DIRECTION('',(0.,0.,1.));
#14 = DIRECTION('',(1.,0.,-0.));
#15 = MANIFOLD_SOLID_BREP('',#16);
#16 = CLOSED_SHELL('',(#17,#163,#635,#742,#849,#1116,#1144,#1172,#1200,
    #1228,#1235,#1290,#1340));
#17 = ADVANCED_FACE('',(#18),#33,.T.);
#18 = FACE_BOUND('',#19,.F.);
#19 = EDGE_LOOP('',(#20,#56,#96,#125));
#20 = ORIENTED_EDGE('',*,*,#21,.F.);
#21 = EDGE_CURVE('',#22,#24,#26,.T.);
#22 = VERTEX_POINT('',#23);
#23 = CARTESIAN_POINT('',(34.420454545455,6.342894361748,0.));
#24 = VERTEX_POINT('',#25);
#25 = CARTESIAN_POINT('',(6.342894361748,34.420454545455,0.));
#26 = SURFACE_CURVE('',#27,(#32,#44),.PCURVE_S1.);
#27 = CIRCLE('',#28,35.);
#28 = AXIS2_PLACEMENT_3D('',#29,#30,#31);
#29 = CARTESIAN_POINT('',(0.,0.,0.));
#30 = DIRECTION('',(0.,0.,1.));
#31 = DIRECTION('',(1.,0.,0.));
#32 = PCURVE('',#33,#38);
#33 = CYLINDRICAL_SURFACE('',#34,35.);
#34 = AXIS2_PLACEMENT_3D('',#35,#36,#37);
#35 = CARTESIAN_POINT('',(0.,0.,0.));
#36 = DIRECTION('',(-0.,-0.,-1.));
#37 = DIRECTION('',(1.,0.,0.));
#38 = DEFINITIONAL_REPRESENTATION('',(#39),#43);
#39 = LINE('',#40,#41);
#40 = CARTESIAN_POINT('',(-0.,0.));
#41 = VECTOR('',#42,1.);
#42 = DIRECTION('',(-1.,0.));
#43 = ( GEOMETRIC_REPRESENTATION_CONTEXT(2) 
PARAMETRIC_REPRESENTATION_CONTEXT() REPRESENTATION_CONTEXT('2D SPACE',''
  ) );
#44 = PCURVE('',#45,#50);
#45 = PLANE('',#46);
#46 = AXIS2_PLACEMENT_3D('',#47,#48,#49);
#47 = CARTESIAN_POINT('',(-1.250230978322E-15,1.071707357638E-15,0.));
#48 = DIRECTION('',(0.,0.,1.));
#49 = DIRECTION('',(1.,0.,-0.));
#50 = DEFINITIONAL_REPRESENTATION('',(#51),#55);
#51 = CIRCLE('',#52,35.);
#52 = AXIS2_PLACEMENT_2D('',#53,#54);
#53 = CARTESIAN_POINT('',(1.250230978322E-15,-1.071707357638E-15));
#54 = DIRECTION('',(1.,0.));
#55 = ( GEOMETRIC_REPRESENTATION_CONTEXT(2) 
PARAMETRIC_REPRESENTATION_CONTEXT() REPRESENTATION_CONTEXT('2D SPACE',''
  ) );
#56 = ORIENTED_EDGE('',*,*,#57,.F.);
#57 = EDGE_CURVE('',#58,#22,#60,.T.);
#58 = VERTEX_POINT('',#59);
#59 = CARTESIAN_POINT('',(34.420454545455,6.342894361748,8.));
#60 = SURFACE_CURVE('',#61,(#67,#73),.PCURVE_S1.);
#61 = B_SPLINE_CURVE_WITH_KNOTS('',2,(#62,#63,#64,#65,#66),
  .UNSPECIFIED.,.F.,.F.,(3,1,1,3),(-0.4896,-1.213352335272E-14,8.,8.4896
    ),.UNSPECIFIED.);
#62 = CARTESIAN_POINT('',(34.420454545455,6.342894361748,8.4896));
#63 = CARTESIAN_POINT('',(34.420454545455,6.342894361748,8.2448));
#64 = CARTESIAN_POINT('',(34.420454545455,6.342894361748,4.));
#65 = CARTESIAN_POINT('',(34.420454545455,6.342894361748,-0.2448));
#66 = CARTESIAN_POINT('',(34.420454545455,6.342894361748,-0.4896));
#67 = PCURVE('',#33,#68);
#68 = DEFINITIONAL_REPRESENTATION('',(#69),#72);
#69 = B_SPLINE_CURVE_WITH_KNOTS('',1,(#70,#71),.UNSPECIFIED.,.F.,.F.,(2,
    2),(-1.213352335272E-14,8.),.PIECEWISE_BEZIER_KNOTS.);
#70 = CARTESIAN_POINT('',(-0.182232496638,-8.));
#71 = CARTESIAN_POINT('',(-0.182232496638,1.45716771982E-15));
#72 = ( GEOMETRIC_REPRESENTATION_CONTEXT(2) 
PARAMETRIC_REPRESENTATION_CONTEXT() REPRESENTATION_CONTEXT('2D SPACE',''
  ) );
#73 = PCURVE('',#74,#90);
#74 = ( BOUNDED_SURFACE() B_SPLINE_SURFACE(2,2,(
    (#75,#76,#77,#78,#79)
    ,(#80,#81,#82,#83,#84)
    ,(#85,#86,#87,#88,#89
)),.UNSPECIFIED.,.F.,.F.,.F.) B_SPLINE_SURFACE_WITH_KNOTS((3,3),(3,1,1,3
    ),(0.,8.),(-0.4896,-1.213352335272E-14,8.,8.4896),.UNSPECIFIED.) 
GEOMETRIC_REPRESENTATION_ITEM() RATIONAL_B_SPLINE_SURFACE((
    (1.,1.,1.,1.,1.)
    ,(0.780554760581,0.780554760581,0.780554760581,0.780554760581
      ,0.780554760581)
,(1.,1.,1.,1.,1.))) REPRESENTATION_ITEM('') SURFACE() );
#75 = CARTESIAN_POINT('',(34.420454545455,6.342894361748,8.4896));
#76 = CARTESIAN_POINT('',(34.420454545455,6.342894361748,8.2448));
#77 = CARTESIAN_POINT('',(34.420454545455,6.342894361748,4.));
#78 = CARTESIAN_POINT('',(34.420454545455,6.342894361748,-0.2448));
#79 = CARTESIAN_POINT('',(34.420454545455,6.342894361748,-0.4896));
#80 = CARTESIAN_POINT('',(34.710714285714,4.767766095978,8.4896));
#81 = CARTESIAN_POINT('',(34.710714285714,4.767766095978,8.2448));
#82 = CARTESIAN_POINT('',(34.710714285714,4.767766095978,4.));
#83 = CARTESIAN_POINT('',(34.710714285714,4.767766095978,-0.2448));
#84 = CARTESIAN_POINT('',(34.710714285714,4.767766095978,-0.4896));
#85 = CARTESIAN_POINT('',(33.237087912088,4.140306869097,8.4896));
#86 = CARTESIAN_POINT('',(33.237087912088,4.140306869097,8.2448));
#87 = CARTESIAN_POINT('',(33.237087912088,4.140306869097,4.));
#88 = CARTESIAN_POINT('',(33.237087912088,4.140306869097,-0.2448));
#89 = CARTESIAN_POINT('',(33.237087912088,4.140306869097,-0.4896));
#90 = DEFINITIONAL_REPRESENTATION('',(#91),#95);
#91 = LINE('',#92,#93);
#92 = CARTESIAN_POINT('',(0.,0.));
#93 = VECTOR('',#94,1.);
#94 = DIRECTION('',(0.,1.));
#95 = ( GEOMETRIC_REPRESENTATION_CONTEXT(2) 
PARAMETRIC_REPRESENTATION_CONTEXT() REPRESENTATION_CONTEXT('2D SPACE',''
  ) );
#96 = ORIENTED_EDGE('',*,*,#97,.T.);
#97 = EDGE_CURVE('',#58,#98,#100,.T.);
#98 = VERTEX_POINT('',#99);
#99 = CARTESIAN_POINT('',(6.342894361748,34.420454545455,8.));
#100 = SURFACE_CURVE('',#101,(#106,#113),.PCURVE_S1.);
#101 = CIRCLE('',#102,35.);
#102 = AXIS2_PLACEMENT_3D('',#103,#104,#105);
#103 = CARTESIAN_POINT('',(0.,0.,8.));
#104 = DIRECTION('',(0.,0.,1.));
#105 = DIRECTION('',(1.,0.,0.));
#106 = PCURVE('',#33,#107);
#107 = DEFINITIONAL_REPRESENTATION('',(#108),#112);
#108 = LINE('',#109,#110);
#109 = CARTESIAN_POINT('',(-0.,-8.));
#110 = VECTOR('',#111,1.);
#111 = DIRECTION('',(-1.,0.));
#112 = ( GEOMETRIC_REPRESENTATION_CONTEXT(2) 
PARAMETRIC_REPRESENTATION_CONTEXT() REPRESENTATION_CONTEXT('2D SPACE',''
  ) );
#113 = PCURVE('',#114,#119);
#114 = PLANE('',#115);
#115 = AXIS2_PLACEMENT_3D('',#116,#117,#118);
#116 = CARTESIAN_POINT('',(-1.250230978322E-15,1.071707357638E-15,8.));
#117 = DIRECTION('',(0.,0.,1.));
#118 = DIRECTION('',(1.,0.,-0.));
#119 = DEFINITIONAL_REPRESENTATION('',(#120),#124);
#120 = CIRCLE('',#121,35.);
#121 = AXIS2_PLACEMENT_2D('',#122,#123);
#122 = CARTESIAN_POINT('',(1.250230978322E-15,-1.071707357638E-15));
#123 = DIRECTION('',(1.,0.));
#124 = ( GEOMETRIC_REPRESENTATION_CONTEXT(2) 
PARAMETRIC_REPRESENTATION_CONTEXT() REPRESENTATION_CONTEXT('2D SPACE',''
  ) );
#125 = ORIENTED_EDGE('',*,*,#126,.T.);
#126 = EDGE_CURVE('',#98,#24,#127,.T.);
#127 = SURFACE_CURVE('',#128,(#134,#140),.PCURVE_S1.);
#128 = B_SPLINE_CURVE_WITH_KNOTS('',2,(#129,#130,#131,#132,#133),
  .UNSPECIFIED.,.F.,.F.,(3,1,1,3),(-0.4896,-1.279189600452E-14,8.,8.4896
    ),.UNSPECIFIED.);
#129 = CARTESIAN_POINT('',(6.342894361748,34.420454545455,8.4896));
#130 = CARTESIAN_POINT('',(6.342894361748,34.420454545455,8.2448));
#131 = CARTESIAN_POINT('',(6.342894361748,34.420454545455,4.));
#132 = CARTESIAN_POINT('',(6.342894361748,34.420454545455,-0.2448));
#133 = CARTESIAN_POINT('',(6.342894361748,34.420454545455,-0.4896));
#134 = PCURVE('',#33,#135);
#135 = DEFINITIONAL_REPRESENTATION('',(#136),#139);
#136 = B_SPLINE_CURVE_WITH_KNOTS('',1,(#137,#138),.UNSPECIFIED.,.F.,.F.,
  (2,2),(-1.279189600452E-14,8.),.PIECEWISE_BEZIER_KNOTS.);
#137 = CARTESIAN_POINT('',(-1.388563830157,-8.));
#138 = CARTESIAN_POINT('',(-1.388563830157,9.714451465467E-16));
#139 = ( GEOMETRIC_REPRESENTATION_CONTEXT(2) 
PARAMETRIC_REPRESENTATION_CONTEXT() REPRESENTATION_CONTEXT('2D SPACE',''
  ) );
#140 = PCURVE('',#141,#157);
#141 = ( BOUNDED_SURFACE() B_SPLINE_SURFACE(2,2,(
    (#142,#143,#144,#145,#146)
    ,(#147,#148,#149,#150,#151)
    ,(#152,#153,#154,#155,#156
)),.UNSPECIFIED.,.F.,.F.,.F.) B_SPLINE_SURFACE_WITH_KNOTS((3,3),(3,1,1,3
    ),(0.,8.),(-0.4896,-1.279189600452E-14,8.,8.4896),.UNSPECIFIED.) 
GEOMETRIC_REPRESENTATION_ITEM() RATIONAL_B_SPLINE_SURFACE((
    (1.,1.,1.,1.,1.)
    ,(0.780554760581,0.780554760581,0.780554760581,0.780554760581
      ,0.780554760581)
,(1.,1.,1.,1.,1.))) REPRESENTATION_ITEM('') SURFACE() );
#142 = CARTESIAN_POINT('',(6.342894361748,34.420454545455,8.4896));
#143 = CARTESIAN_POINT('',(6.342894361748,34.420454545455,8.2448));
#144 = CARTESIAN_POINT('',(6.342894361748,34.420454545455,4.));
#145 = CARTESIAN_POINT('',(6.342894361748,34.420454545455,-0.2448));
#146 = CARTESIAN_POINT('',(6.342894361748,34.420454545455,-0.4896));
#147 = CARTESIAN_POINT('',(4.767766095978,34.710714285714,8.4896));
#148 = CARTESIAN_POINT('',(4.767766095978,34.710714285714,8.2448));
#149 = CARTESIAN_POINT('',(4.767766095978,34.710714285714,4.));
#150 = CARTESIAN_POINT('',(4.767766095978,34.710714285714,-0.2448));
#151 = CARTESIAN_POINT('',(4.767766095978,34.710714285714,-0.4896));
#152 = CARTESIAN_POINT('',(4.140306869097,33.237087912088,8.4896));
#153 = CARTESIAN_POINT('',(4.140306869097,33.237087912088,8.2448));
#154 = CARTESIAN_POINT('',(4.140306869097,33.237087912088,4.));
#155 = CARTESIAN_POINT('',(4.140306869097,33.237087912088,-0.2448));
#156 = CARTESIAN_POINT('',(4.140306869097,33.237087912088,-0.4896));
#157 = DEFINITIONAL_REPRESENTATION('',(#158),#162);
#158 = LINE('',#159,#160);
#159 = CARTESIAN_POINT('',(0.,0.));
#160 = VECTOR('',#161,1.);
#161 = DIRECTION('',(0.,1.));
#162 = ( GEOMETRIC_REPRESENTATION_CONTEXT(2) 
PARAMETRIC_REPRESENTATION_CONTEXT() REPRESENTATION_CONTEXT('2D SPACE',''
  ) );
#163 = ADVANCED_FACE('',(#164,#604),#45,.F.);
#164 = FACE_BOUND('',#165,.F.);
#165 = EDGE_LOOP('',(#166,#197,#275,#276,#356,#385,#481,#510));
#166 = ORIENTED_EDGE('',*,*,#167,.F.);
#167 = EDGE_CURVE('',#168,#170,#172,.T.);
#168 = VERTEX_POINT('',#169);
#169 = CARTESIAN_POINT('',(33.237087912088,4.140306869097,0.));
#170 = VERTEX_POINT('',#171);
#171 = CARTESIAN_POINT('',(33.237087912088,-4.140306869097,0.));
#172 = SURFACE_CURVE('',#173,(#178,#185),.PCURVE_S1.);
#173 = CIRCLE('',#174,4.5);
#174 = AXIS2_PLACEMENT_3D('',#175,#176,#177);
#175 = CARTESIAN_POINT('',(35.,0.,0.));
#176 = DIRECTION('',(0.,0.,1.));
#177 = DIRECTION('',(-6.428571428571E-02,0.997931534194,0.));
#178 = PCURVE('',#45,#179);
#179 = DEFINITIONAL_REPRESENTATION('',(#180),#184);
#180 = CIRCLE('',#181,4.5);
#181 = AXIS2_PLACEMENT_2D('',#182,#183);
#182 = CARTESIAN_POINT('',(35.,-1.071707357638E-15));
#183 = DIRECTION('',(-6.428571428571E-02,0.997931534194));
#184 = ( GEOMETRIC_REPRESENTATION_CONTEXT(2) 
PARAMETRIC_REPRESENTATION_CONTEXT() REPRESENTATION_CONTEXT('2D SPACE',''
  ) );
#185 = PCURVE('',#186,#191);
#186 = CYLINDRICAL_SURFACE('',#187,4.5);
#187 = AXIS2_PLACEMENT_3D('',#188,#189,#190);
#188 = CARTESIAN_POINT('',(35.,0.,-42.0000002));
#189 = DIRECTION('',(-0.,-0.,-1.));
#190 = DIRECTION('',(1.,0.,0.));
#191 = DEFINITIONAL_REPRESENTATION('',(#192),#196);
#192 = LINE('',#193,#194);
#193 = CARTESIAN_POINT('',(-1.635126402054,-42.0000002));
#194 = VECTOR('',#195,1.);
#195 = DIRECTION('',(-1.,-0.));
#196 = ( GEOMETRIC_REPRESENTATION_CONTEXT(2) 
PARAMETRIC_REPRESENTATION_CONTEXT() REPRESENTATION_CONTEXT('2D SPACE',''
  ) );
#197 = ORIENTED_EDGE('',*,*,#198,.F.);
#198 = EDGE_CURVE('',#22,#168,#199,.T.);
#199 = SURFACE_CURVE('',#200,(#223,#249),.PCURVE_S1.);
#200 = B_SPLINE_CURVE_WITH_KNOTS('',6,(#201,#202,#203,#204,#205,#206,
    #207,#208,#209,#210,#211,#212,#213,#214,#215,#216,#217,#218,#219,
    #220,#221,#222),.UNSPECIFIED.,.F.,.F.,(7,5,5,5,7),(0.,0.249253325545
    ,0.5,0.750746674456,1.),.UNSPECIFIED.);
#201 = CARTESIAN_POINT('',(34.420454545455,6.342894361748,0.));
#202 = CARTESIAN_POINT('',(34.439418650655,6.239983437519,0.));
#203 = CARTESIAN_POINT('',(34.452302408435,6.133813784151,0.));
#204 = CARTESIAN_POINT('',(34.458494774274,6.02497131216,0.));
#205 = CARTESIAN_POINT('',(34.457464943898,5.914199382428,0.));
#206 = CARTESIAN_POINT('',(34.448837017096,5.802386352905,0.));
#207 = CARTESIAN_POINT('',(34.415948668893,5.577928285998,0.));
#208 = CARTESIAN_POINT('',(34.391594352887,5.465279107755,0.));
#209 = CARTESIAN_POINT('',(34.359206066237,5.353524292679,0.));
#210 = CARTESIAN_POINT('',(34.318819585794,5.243707461795,0.));
#211 = CARTESIAN_POINT('',(34.270717797776,5.136853991874,0.));
#212 = CARTESIAN_POINT('',(34.160072264276,4.93091065924,0.));
#213 = CARTESIAN_POINT('',(34.097526646087,4.831817310875,0.));
#214 = CARTESIAN_POINT('',(34.028251132574,4.737521460619,0.));
#215 = CARTESIAN_POINT('',(33.95294456415,4.648825008846,0.));
#216 = CARTESIAN_POINT('',(33.872457401102,4.566333878104,0.));
#217 = CARTESIAN_POINT('',(33.703450765389,4.415006999024,0.));
#218 = CARTESIAN_POINT('',(33.614979670798,4.346090672118,0.));
#219 = CARTESIAN_POINT('',(33.523182449067,4.284084615564,0.));
#220 = CARTESIAN_POINT('',(33.429007346776,4.22916577351,0.));
#221 = CARTESIAN_POINT('',(33.333367215415,4.181301885413,0.));
#222 = CARTESIAN_POINT('',(33.237087912088,4.140306869097,0.));
#223 = PCURVE('',#45,#224);
#224 = DEFINITIONAL_REPRESENTATION('',(#225),#248);
#225 = B_SPLINE_CURVE_WITH_KNOTS('',6,(#226,#227,#228,#229,#230,#231,
    #232,#233,#234,#235,#236,#237,#238,#239,#240,#241,#242,#243,#244,
    #245,#246,#247),.UNSPECIFIED.,.F.,.F.,(7,5,5,5,7),(0.,0.249253325545
    ,0.5,0.750746674456,1.),.UNSPECIFIED.);
#226 = CARTESIAN_POINT('',(34.420454545455,6.342894361748));
#227 = CARTESIAN_POINT('',(34.439418650655,6.239983437519));
#228 = CARTESIAN_POINT('',(34.452302408435,6.133813784151));
#229 = CARTESIAN_POINT('',(34.458494774274,6.02497131216));
#230 = CARTESIAN_POINT('',(34.457464943898,5.914199382428));
#231 = CARTESIAN_POINT('',(34.448837017096,5.802386352905));
#232 = CARTESIAN_POINT('',(34.415948668893,5.577928285998));
#233 = CARTESIAN_POINT('',(34.391594352887,5.465279107755));
#234 = CARTESIAN_POINT('',(34.359206066237,5.353524292679));
#235 = CARTESIAN_POINT('',(34.318819585794,5.243707461795));
#236 = CARTESIAN_POINT('',(34.270717797776,5.136853991874));
#237 = CARTESIAN_POINT('',(34.160072264276,4.93091065924));
#238 = CARTESIAN_POINT('',(34.097526646087,4.831817310875));
#239 = CARTESIAN_POINT('',(34.028251132574,4.737521460619));
#240 = CARTESIAN_POINT('',(33.95294456415,4.648825008846));
#241 = CARTESIAN_POINT('',(33.872457401102,4.566333878104));
#242 = CARTESIAN_POINT('',(33.703450765389,4.415006999024));
#243 = CARTESIAN_POINT('',(33.614979670798,4.346090672118));
#244 = CARTESIAN_POINT('',(33.523182449067,4.284084615564));
#245 = CARTESIAN_POINT('',(33.429007346776,4.22916577351));
#246 = CARTESIAN_POINT('',(33.333367215415,4.181301885413));
#247 = CARTESIAN_POINT('',(33.237087912088,4.140306869097));
#248 = ( GEOMETRIC_REPRESENTATION_CONTEXT(2) 
PARAMETRIC_REPRESENTATION_CONTEXT() REPRESENTATION_CONTEXT('2D SPACE',''
  ) );
#249 = PCURVE('',#74,#250);
#250 = DEFINITIONAL_REPRESENTATION('',(#251),#274);
#251 = B_SPLINE_CURVE_WITH_KNOTS('',6,(#252,#253,#254,#255,#256,#257,
    #258,#259,#260,#261,#262,#263,#264,#265,#266,#267,#268,#269,#270,
    #271,#272,#273),.UNSPECIFIED.,.F.,.F.,(7,5,5,5,7),(0.,0.249253325545
    ,0.5,0.750746674456,1.),.UNSPECIFIED.);
#252 = CARTESIAN_POINT('',(0.,8.));
#253 = CARTESIAN_POINT('',(0.334812888811,8.));
#254 = CARTESIAN_POINT('',(0.668974097933,8.));
#255 = CARTESIAN_POINT('',(1.002509030619,8.));
#256 = CARTESIAN_POINT('',(1.335472297387,8.));
#257 = CARTESIAN_POINT('',(1.667943052553,8.));
#258 = CARTESIAN_POINT('',(2.334046396854,8.));
#259 = CARTESIAN_POINT('',(2.667683641459,8.));
#260 = CARTESIAN_POINT('',(3.000985779036,8.));
#261 = CARTESIAN_POINT('',(3.334062192647,8.));
#262 = CARTESIAN_POINT('',(3.667033992924,8.));
#263 = CARTESIAN_POINT('',(4.332966007076,8.));
#264 = CARTESIAN_POINT('',(4.665937807353,8.));
#265 = CARTESIAN_POINT('',(4.999014220963,8.));
#266 = CARTESIAN_POINT('',(5.332316358541,8.));
#267 = CARTESIAN_POINT('',(5.665953603146,8.));
#268 = CARTESIAN_POINT('',(6.332056947446,8.));
#269 = CARTESIAN_POINT('',(6.664527702614,8.));
#270 = CARTESIAN_POINT('',(6.99749096938,8.));
#271 = CARTESIAN_POINT('',(7.331025902067,8.));
#272 = CARTESIAN_POINT('',(7.665187111189,8.));
#273 = CARTESIAN_POINT('',(8.,8.));
#274 = ( GEOMETRIC_REPRESENTATION_CONTEXT(2) 
PARAMETRIC_REPRESENTATION_CONTEXT() REPRESENTATION_CONTEXT('2D SPACE',''
  ) );
#275 = ORIENTED_EDGE('',*,*,#21,.T.);
#276 = ORIENTED_EDGE('',*,*,#277,.T.);
#277 = EDGE_CURVE('',#24,#278,#280,.T.);
#278 = VERTEX_POINT('',#279);
#279 = CARTESIAN_POINT('',(4.140306869097,33.237087912088,0.));
#280 = SURFACE_CURVE('',#281,(#304,#330),.PCURVE_S1.);
#281 = B_SPLINE_CURVE_WITH_KNOTS('',6,(#282,#283,#284,#285,#286,#287,
    #288,#289,#290,#291,#292,#293,#294,#295,#296,#297,#298,#299,#300,
    #301,#302,#303),.UNSPECIFIED.,.F.,.F.,(7,5,5,5,7),(0.,0.249253325544
    ,0.5,0.750746674455,1.),.UNSPECIFIED.);
#282 = CARTESIAN_POINT('',(6.342894361748,34.420454545455,0.));
#283 = CARTESIAN_POINT('',(6.239983437519,34.439418650655,0.));
#284 = CARTESIAN_POINT('',(6.133813784151,34.452302408435,0.));
#285 = CARTESIAN_POINT('',(6.02497131216,34.458494774274,0.));
#286 = CARTESIAN_POINT('',(5.914199382428,34.457464943898,0.));
#287 = CARTESIAN_POINT('',(5.802386352905,34.448837017096,0.));
#288 = CARTESIAN_POINT('',(5.577928285998,34.415948668893,0.));
#289 = CARTESIAN_POINT('',(5.465279107756,34.391594352887,0.));
#290 = CARTESIAN_POINT('',(5.353524292679,34.359206066237,0.));
#291 = CARTESIAN_POINT('',(5.243707461795,34.318819585794,0.));
#292 = CARTESIAN_POINT('',(5.136853991874,34.270717797775,0.));
#293 = CARTESIAN_POINT('',(4.93091065924,34.160072264276,0.));
#294 = CARTESIAN_POINT('',(4.831817310875,34.097526646087,0.));
#295 = CARTESIAN_POINT('',(4.737521460619,34.028251132574,0.));
#296 = CARTESIAN_POINT('',(4.648825008846,33.95294456415,0.));
#297 = CARTESIAN_POINT('',(4.566333878104,33.872457401102,0.));
#298 = CARTESIAN_POINT('',(4.415006999023,33.703450765388,0.));
#299 = CARTESIAN_POINT('',(4.346090672119,33.614979670799,0.));
#300 = CARTESIAN_POINT('',(4.284084615563,33.523182449066,0.));
#301 = CARTESIAN_POINT('',(4.229165773511,33.429007346777,0.));
#302 = CARTESIAN_POINT('',(4.181301885413,33.333367215414,0.));
#303 = CARTESIAN_POINT('',(4.140306869097,33.237087912088,0.));
#304 = PCURVE('',#45,#305);
#305 = DEFINITIONAL_REPRESENTATION('',(#306),#329);
#306 = B_SPLINE_CURVE_WITH_KNOTS('',6,(#307,#308,#309,#310,#311,#312,
    #313,#314,#315,#316,#317,#318,#319,#320,#321,#322,#323,#324,#325,
    #326,#327,#328),.UNSPECIFIED.,.F.,.F.,(7,5,5,5,7),(0.,0.249253325544
    ,0.5,0.750746674455,1.),.UNSPECIFIED.);
#307 = CARTESIAN_POINT('',(6.342894361748,34.420454545455));
#308 = CARTESIAN_POINT('',(6.239983437519,34.439418650655));
#309 = CARTESIAN_POINT('',(6.133813784151,34.452302408435));
#310 = CARTESIAN_POINT('',(6.02497131216,34.458494774274));
#311 = CARTESIAN_POINT('',(5.914199382428,34.457464943898));
#312 = CARTESIAN_POINT('',(5.802386352905,34.448837017096));
#313 = CARTESIAN_POINT('',(5.577928285998,34.415948668893));
#314 = CARTESIAN_POINT('',(5.465279107756,34.391594352887));
#315 = CARTESIAN_POINT('',(5.353524292679,34.359206066237));
#316 = CARTESIAN_POINT('',(5.243707461795,34.318819585794));
#317 = CARTESIAN_POINT('',(5.136853991874,34.270717797775));
#318 = CARTESIAN_POINT('',(4.93091065924,34.160072264276));
#319 = CARTESIAN_POINT('',(4.831817310875,34.097526646087));
#320 = CARTESIAN_POINT('',(4.737521460619,34.028251132574));
#321 = CARTESIAN_POINT('',(4.648825008846,33.95294456415));
#322 = CARTESIAN_POINT('',(4.566333878104,33.872457401102));
#323 = CARTESIAN_POINT('',(4.415006999023,33.703450765388));
#324 = CARTESIAN_POINT('',(4.346090672119,33.614979670799));
#325 = CARTESIAN_POINT('',(4.284084615563,33.523182449066));
#326 = CARTESIAN_POINT('',(4.229165773511,33.429007346777));
#327 = CARTESIAN_POINT('',(4.181301885413,33.333367215414));
#328 = CARTESIAN_POINT('',(4.140306869097,33.237087912088));
#329 = ( GEOMETRIC_REPRESENTATION_CONTEXT(2) 
PARAMETRIC_REPRESENTATION_CONTEXT() REPRESENTATION_CONTEXT('2D SPACE',''
  ) );
#330 = PCURVE('',#141,#331);
#331 = DEFINITIONAL_REPRESENTATION('',(#332),#355);
#332 = B_SPLINE_CURVE_WITH_KNOTS('',6,(#333,#334,#335,#336,#337,#338,
    #339,#340,#341,#342,#343,#344,#345,#346,#347,#348,#349,#350,#351,
    #352,#353,#354),.UNSPECIFIED.,.F.,.F.,(7,5,5,5,7),(0.,0.249253325544
    ,0.5,0.750746674455,1.),.UNSPECIFIED.);
#333 = CARTESIAN_POINT('',(0.,8.));
#334 = CARTESIAN_POINT('',(0.334812888811,8.));
#335 = CARTESIAN_POINT('',(0.668974097934,8.));
#336 = CARTESIAN_POINT('',(1.002509030618,8.));
#337 = CARTESIAN_POINT('',(1.335472297388,8.));
#338 = CARTESIAN_POINT('',(1.667943052553,8.));
#339 = CARTESIAN_POINT('',(2.334046396854,8.));
#340 = CARTESIAN_POINT('',(2.667683641459,8.));
#341 = CARTESIAN_POINT('',(3.000985779037,8.));
#342 = CARTESIAN_POINT('',(3.334062192647,8.));
#343 = CARTESIAN_POINT('',(3.667033992924,8.));
#344 = CARTESIAN_POINT('',(4.332966007076,8.));
#345 = CARTESIAN_POINT('',(4.665937807353,8.));
#346 = CARTESIAN_POINT('',(4.999014220963,8.));
#347 = CARTESIAN_POINT('',(5.332316358542,8.));
#348 = CARTESIAN_POINT('',(5.665953603146,8.));
#349 = CARTESIAN_POINT('',(6.332056947447,8.));
#350 = CARTESIAN_POINT('',(6.664527702611,8.));
#351 = CARTESIAN_POINT('',(6.997490969384,8.));
#352 = CARTESIAN_POINT('',(7.331025902064,8.));
#353 = CARTESIAN_POINT('',(7.66518711119,8.));
#354 = CARTESIAN_POINT('',(8.,8.));
#355 = ( GEOMETRIC_REPRESENTATION_CONTEXT(2) 
PARAMETRIC_REPRESENTATION_CONTEXT() REPRESENTATION_CONTEXT('2D SPACE',''
  ) );
#356 = ORIENTED_EDGE('',*,*,#357,.F.);
#357 = EDGE_CURVE('',#358,#278,#360,.T.);
#358 = VERTEX_POINT('',#359);
#359 = CARTESIAN_POINT('',(-4.140306869097,33.237087912088,0.));
#360 = SURFACE_CURVE('',#361,(#366,#373),.PCURVE_S1.);
#361 = CIRCLE('',#362,4.5);
#362 = AXIS2_PLACEMENT_3D('',#363,#364,#365);
#363 = CARTESIAN_POINT('',(0.,35.,0.));
#364 = DIRECTION('',(0.,0.,1.));
#365 = DIRECTION('',(-0.997931534194,-6.428571428572E-02,0.));
#366 = PCURVE('',#45,#367);
#367 = DEFINITIONAL_REPRESENTATION('',(#368),#372);
#368 = CIRCLE('',#369,4.5);
#369 = AXIS2_PLACEMENT_2D('',#370,#371);
#370 = CARTESIAN_POINT('',(1.250230978322E-15,35.));
#371 = DIRECTION('',(-0.997931534194,-6.428571428572E-02));
#372 = ( GEOMETRIC_REPRESENTATION_CONTEXT(2) 
PARAMETRIC_REPRESENTATION_CONTEXT() REPRESENTATION_CONTEXT('2D SPACE',''
  ) );
#373 = PCURVE('',#374,#379);
#374 = CYLINDRICAL_SURFACE('',#375,4.5);
#375 = AXIS2_PLACEMENT_3D('',#376,#377,#378);
#376 = CARTESIAN_POINT('',(0.,35.,-42.0000002));
#377 = DIRECTION('',(-0.,-0.,-1.));
#378 = DIRECTION('',(1.,0.,0.));
#379 = DEFINITIONAL_REPRESENTATION('',(#380),#384);
#380 = LINE('',#381,#382);
#381 = CARTESIAN_POINT('',(-3.205922728849,-42.0000002));
#382 = VECTOR('',#383,1.);
#383 = DIRECTION('',(-1.,-0.));
#384 = ( GEOMETRIC_REPRESENTATION_CONTEXT(2) 
PARAMETRIC_REPRESENTATION_CONTEXT() REPRESENTATION_CONTEXT('2D SPACE',''
  ) );
#385 = ORIENTED_EDGE('',*,*,#386,.T.);
#386 = EDGE_CURVE('',#358,#387,#389,.T.);
#387 = VERTEX_POINT('',#388);
#388 = CARTESIAN_POINT('',(-6.342894361748,34.420454545455,0.));
#389 = SURFACE_CURVE('',#390,(#413,#439),.PCURVE_S1.);
#390 = B_SPLINE_CURVE_WITH_KNOTS('',6,(#391,#392,#393,#394,#395,#396,
    #397,#398,#399,#400,#401,#402,#403,#404,#405,#406,#407,#408,#409,
    #410,#411,#412),.UNSPECIFIED.,.F.,.F.,(7,5,5,5,7),(0.,0.249253325545
    ,0.5,0.750746674455,1.),.UNSPECIFIED.);
#391 = CARTESIAN_POINT('',(-4.140306869097,33.237087912088,0.));
#392 = CARTESIAN_POINT('',(-4.181301885413,33.333367215415,0.));
#393 = CARTESIAN_POINT('',(-4.229165773511,33.429007346776,0.));
#394 = CARTESIAN_POINT('',(-4.284084615564,33.523182449067,0.));
#395 = CARTESIAN_POINT('',(-4.346090672118,33.614979670798,0.));
#396 = CARTESIAN_POINT('',(-4.415006999023,33.703450765389,0.));
#397 = CARTESIAN_POINT('',(-4.566333878104,33.872457401102,0.));
#398 = CARTESIAN_POINT('',(-4.648825008846,33.95294456415,0.));
#399 = CARTESIAN_POINT('',(-4.737521460619,34.028251132573,0.));
#400 = CARTESIAN_POINT('',(-4.831817310876,34.097526646087,0.));
#401 = CARTESIAN_POINT('',(-4.93091065924,34.160072264276,0.));
#402 = CARTESIAN_POINT('',(-5.136853991874,34.270717797776,0.));
#403 = CARTESIAN_POINT('',(-5.243707461795,34.318819585794,0.));
#404 = CARTESIAN_POINT('',(-5.353524292679,34.359206066237,0.));
#405 = CARTESIAN_POINT('',(-5.465279107756,34.391594352887,0.));
#406 = CARTESIAN_POINT('',(-5.577928285998,34.415948668893,0.));
#407 = CARTESIAN_POINT('',(-5.802386352905,34.448837017096,0.));
#408 = CARTESIAN_POINT('',(-5.914199382428,34.457464943898,0.));
#409 = CARTESIAN_POINT('',(-6.02497131216,34.458494774274,0.));
#410 = CARTESIAN_POINT('',(-6.133813784151,34.452302408435,0.));
#411 = CARTESIAN_POINT('',(-6.239983437519,34.439418650655,0.));
#412 = CARTESIAN_POINT('',(-6.342894361748,34.420454545455,0.));
#413 = PCURVE('',#45,#414);
#414 = DEFINITIONAL_REPRESENTATION('',(#415),#438);
#415 = B_SPLINE_CURVE_WITH_KNOTS('',6,(#416,#417,#418,#419,#420,#421,
    #422,#423,#424,#425,#426,#427,#428,#429,#430,#431,#432,#433,#434,
    #435,#436,#437),.UNSPECIFIED.,.F.,.F.,(7,5,5,5,7),(0.,0.249253325545
    ,0.5,0.750746674455,1.),.UNSPECIFIED.);
#416 = CARTESIAN_POINT('',(-4.140306869097,33.237087912088));
#417 = CARTESIAN_POINT('',(-4.181301885413,33.333367215415));
#418 = CARTESIAN_POINT('',(-4.229165773511,33.429007346776));
#419 = CARTESIAN_POINT('',(-4.284084615564,33.523182449067));
#420 = CARTESIAN_POINT('',(-4.346090672118,33.614979670798));
#421 = CARTESIAN_POINT('',(-4.415006999023,33.703450765389));
#422 = CARTESIAN_POINT('',(-4.566333878104,33.872457401102));
#423 = CARTESIAN_POINT('',(-4.648825008846,33.95294456415));
#424 = CARTESIAN_POINT('',(-4.737521460619,34.028251132573));
#425 = CARTESIAN_POINT('',(-4.831817310876,34.097526646087));
#426 = CARTESIAN_POINT('',(-4.93091065924,34.160072264276));
#427 = CARTESIAN_POINT('',(-5.136853991874,34.270717797776));
#428 = CARTESIAN_POINT('',(-5.243707461795,34.318819585794));
#429 = CARTESIAN_POINT('',(-5.353524292679,34.359206066237));
#430 = CARTESIAN_POINT('',(-5.465279107756,34.391594352887));
#431 = CARTESIAN_POINT('',(-5.577928285998,34.415948668893));
#432 = CARTESIAN_POINT('',(-5.802386352905,34.448837017096));
#433 = CARTESIAN_POINT('',(-5.914199382428,34.457464943898));
#434 = CARTESIAN_POINT('',(-6.02497131216,34.458494774274));
#435 = CARTESIAN_POINT('',(-6.133813784151,34.452302408435));
#436 = CARTESIAN_POINT('',(-6.239983437519,34.439418650655));
#437 = CARTESIAN_POINT('',(-6.342894361748,34.420454545455));
#438 = ( GEOMETRIC_REPRESENTATION_CONTEXT(2) 
PARAMETRIC_REPRESENTATION_CONTEXT() REPRESENTATION_CONTEXT('2D SPACE',''
  ) );
#439 = PCURVE('',#440,#456);
#440 = ( BOUNDED_SURFACE() B_SPLINE_SURFACE(2,2,(
    (#441,#442,#443,#444,#445)
    ,(#446,#447,#448,#449,#450)
    ,(#451,#452,#453,#454,#455
)),.UNSPECIFIED.,.F.,.F.,.F.) B_SPLINE_SURFACE_WITH_KNOTS((3,3),(3,1,1,3
    ),(0.,8.),(-0.4896,-1.280741833046E-14,8.,8.4896),.UNSPECIFIED.) 
GEOMETRIC_REPRESENTATION_ITEM() RATIONAL_B_SPLINE_SURFACE((
    (1.,1.,1.,1.,1.)
    ,(0.780554760581,0.780554760581,0.780554760581,0.780554760581
      ,0.780554760581)
,(1.,1.,1.,1.,1.))) REPRESENTATION_ITEM('') SURFACE() );
#441 = CARTESIAN_POINT('',(-4.140306869097,33.237087912088,8.4896));
#442 = CARTESIAN_POINT('',(-4.140306869097,33.237087912088,8.2448));
#443 = CARTESIAN_POINT('',(-4.140306869097,33.237087912088,4.));
#444 = CARTESIAN_POINT('',(-4.140306869097,33.237087912088,-0.2448));
#445 = CARTESIAN_POINT('',(-4.140306869097,33.237087912088,-0.4896));
#446 = CARTESIAN_POINT('',(-4.767766095978,34.710714285714,8.4896));
#447 = CARTESIAN_POINT('',(-4.767766095978,34.710714285714,8.2448));
#448 = CARTESIAN_POINT('',(-4.767766095978,34.710714285714,4.));
#449 = CARTESIAN_POINT('',(-4.767766095978,34.710714285714,-0.2448));
#450 = CARTESIAN_POINT('',(-4.767766095978,34.710714285714,-0.4896));
#451 = CARTESIAN_POINT('',(-6.342894361748,34.420454545455,8.4896));
#452 = CARTESIAN_POINT('',(-6.342894361748,34.420454545455,8.2448));
#453 = CARTESIAN_POINT('',(-6.342894361748,34.420454545455,4.));
#454 = CARTESIAN_POINT('',(-6.342894361748,34.420454545455,-0.2448));
#455 = CARTESIAN_POINT('',(-6.342894361748,34.420454545455,-0.4896));
#456 = DEFINITIONAL_REPRESENTATION('',(#457),#480);
#457 = B_SPLINE_CURVE_WITH_KNOTS('',6,(#458,#459,#460,#461,#462,#463,
    #464,#465,#466,#467,#468,#469,#470,#471,#472,#473,#474,#475,#476,
    #477,#478,#479),.UNSPECIFIED.,.F.,.F.,(7,5,5,5,7),(0.,0.249253325545
    ,0.5,0.750746674455,1.),.UNSPECIFIED.);
#458 = CARTESIAN_POINT('',(0.,8.));
#459 = CARTESIAN_POINT('',(0.334812888811,8.));
#460 = CARTESIAN_POINT('',(0.668974097934,8.));
#461 = CARTESIAN_POINT('',(1.002509030618,8.));
#462 = CARTESIAN_POINT('',(1.335472297388,8.));
#463 = CARTESIAN_POINT('',(1.667943052553,8.));
#464 = CARTESIAN_POINT('',(2.334046396854,8.));
#465 = CARTESIAN_POINT('',(2.667683641459,8.));
#466 = CARTESIAN_POINT('',(3.000985779036,8.));
#467 = CARTESIAN_POINT('',(3.334062192647,8.));
#468 = CARTESIAN_POINT('',(3.667033992924,8.));
#469 = CARTESIAN_POINT('',(4.332966007076,8.));
#470 = CARTESIAN_POINT('',(4.665937807353,8.));
#471 = CARTESIAN_POINT('',(4.999014220964,8.));
#472 = CARTESIAN_POINT('',(5.332316358541,8.));
#473 = CARTESIAN_POINT('',(5.665953603146,8.));
#474 = CARTESIAN_POINT('',(6.332056947447,8.));
#475 = CARTESIAN_POINT('',(6.664527702612,8.));
#476 = CARTESIAN_POINT('',(6.997490969382,8.));
#477 = CARTESIAN_POINT('',(7.331025902066,8.));
#478 = CARTESIAN_POINT('',(7.665187111189,8.));
#479 = CARTESIAN_POINT('',(8.,8.));
#480 = ( GEOMETRIC_REPRESENTATION_CONTEXT(2) 
PARAMETRIC_REPRESENTATION_CONTEXT() REPRESENTATION_CONTEXT('2D SPACE',''
  ) );
#481 = ORIENTED_EDGE('',*,*,#482,.T.);
#482 = EDGE_CURVE('',#387,#483,#485,.T.);
#483 = VERTEX_POINT('',#484);
#484 = CARTESIAN_POINT('',(34.420454545455,-6.342894361748,0.));
#485 = SURFACE_CURVE('',#486,(#491,#498),.PCURVE_S1.);
#486 = CIRCLE('',#487,35.);
#487 = AXIS2_PLACEMENT_3D('',#488,#489,#490);
#488 = CARTESIAN_POINT('',(0.,0.,0.));
#489 = DIRECTION('',(0.,0.,1.));
#490 = DIRECTION('',(1.,0.,0.));
#491 = PCURVE('',#45,#492);
#492 = DEFINITIONAL_REPRESENTATION('',(#493),#497);
#493 = CIRCLE('',#494,35.);
#494 = AXIS2_PLACEMENT_2D('',#495,#496);
#495 = CARTESIAN_POINT('',(1.250230978322E-15,-1.071707357638E-15));
#496 = DIRECTION('',(1.,0.));
#497 = ( GEOMETRIC_REPRESENTATION_CONTEXT(2) 
PARAMETRIC_REPRESENTATION_CONTEXT() REPRESENTATION_CONTEXT('2D SPACE',''
  ) );
#498 = PCURVE('',#499,#504);
#499 = CYLINDRICAL_SURFACE('',#500,35.);
#500 = AXIS2_PLACEMENT_3D('',#501,#502,#503);
#501 = CARTESIAN_POINT('',(0.,0.,0.));
#502 = DIRECTION('',(-0.,-0.,-1.));
#503 = DIRECTION('',(1.,0.,0.));
#504 = DEFINITIONAL_REPRESENTATION('',(#505),#509);
#505 = LINE('',#506,#507);
#506 = CARTESIAN_POINT('',(-0.,0.));
#507 = VECTOR('',#508,1.);
#508 = DIRECTION('',(-1.,0.));
#509 = ( GEOMETRIC_REPRESENTATION_CONTEXT(2) 
PARAMETRIC_REPRESENTATION_CONTEXT() REPRESENTATION_CONTEXT('2D SPACE',''
  ) );
#510 = ORIENTED_EDGE('',*,*,#511,.F.);
#511 = EDGE_CURVE('',#170,#483,#512,.T.);
#512 = SURFACE_CURVE('',#513,(#536,#562),.PCURVE_S1.);
#513 = B_SPLINE_CURVE_WITH_KNOTS('',6,(#514,#515,#516,#517,#518,#519,
    #520,#521,#522,#523,#524,#525,#526,#527,#528,#529,#530,#531,#532,
    #533,#534,#535),.UNSPECIFIED.,.F.,.F.,(7,5,5,5,7),(0.,0.249253325545
    ,0.5,0.750746674455,1.),.UNSPECIFIED.);
#514 = CARTESIAN_POINT('',(33.237087912088,-4.140306869097,0.));
#515 = CARTESIAN_POINT('',(33.333367215415,-4.181301885413,0.));
#516 = CARTESIAN_POINT('',(33.429007346776,-4.229165773511,0.));
#517 = CARTESIAN_POINT('',(33.523182449067,-4.284084615564,0.));
#518 = CARTESIAN_POINT('',(33.614979670798,-4.346090672118,0.));
#519 = CARTESIAN_POINT('',(33.703450765389,-4.415006999023,0.));
#520 = CARTESIAN_POINT('',(33.872457401102,-4.566333878104,0.));
#521 = CARTESIAN_POINT('',(33.95294456415,-4.648825008846,0.));
#522 = CARTESIAN_POINT('',(34.028251132573,-4.737521460619,0.));
#523 = CARTESIAN_POINT('',(34.097526646087,-4.831817310876,0.));
#524 = CARTESIAN_POINT('',(34.160072264276,-4.93091065924,0.));
#525 = CARTESIAN_POINT('',(34.270717797775,-5.136853991874,0.));
#526 = CARTESIAN_POINT('',(34.318819585794,-5.243707461795,0.));
#527 = CARTESIAN_POINT('',(34.359206066237,-5.353524292679,0.));
#528 = CARTESIAN_POINT('',(34.391594352887,-5.465279107756,0.));
#529 = CARTESIAN_POINT('',(34.415948668893,-5.577928285998,0.));
#530 = CARTESIAN_POINT('',(34.448837017096,-5.802386352905,0.));
#531 = CARTESIAN_POINT('',(34.457464943898,-5.914199382428,0.));
#532 = CARTESIAN_POINT('',(34.458494774274,-6.024971312161,0.));
#533 = CARTESIAN_POINT('',(34.452302408435,-6.133813784151,0.));
#534 = CARTESIAN_POINT('',(34.439418650655,-6.239983437519,0.));
#535 = CARTESIAN_POINT('',(34.420454545455,-6.342894361748,0.));
#536 = PCURVE('',#45,#537);
#537 = DEFINITIONAL_REPRESENTATION('',(#538),#561);
#538 = B_SPLINE_CURVE_WITH_KNOTS('',6,(#539,#540,#541,#542,#543,#544,
    #545,#546,#547,#548,#549,#550,#551,#552,#553,#554,#555,#556,#557,
    #558,#559,#560),.UNSPECIFIED.,.F.,.F.,(7,5,5,5,7),(0.,0.249253325545
    ,0.5,0.750746674455,1.),.UNSPECIFIED.);
#539 = CARTESIAN_POINT('',(33.237087912088,-4.140306869097));
#540 = CARTESIAN_POINT('',(33.333367215415,-4.181301885413));
#541 = CARTESIAN_POINT('',(33.429007346776,-4.229165773511));
#542 = CARTESIAN_POINT('',(33.523182449067,-4.284084615564));
#543 = CARTESIAN_POINT('',(33.614979670798,-4.346090672118));
#544 = CARTESIAN_POINT('',(33.703450765389,-4.415006999023));
#545 = CARTESIAN_POINT('',(33.872457401102,-4.566333878104));
#546 = CARTESIAN_POINT('',(33.95294456415,-4.648825008846));
#547 = CARTESIAN_POINT('',(34.028251132573,-4.737521460619));
#548 = CARTESIAN_POINT('',(34.097526646087,-4.831817310876));
#549 = CARTESIAN_POINT('',(34.160072264276,-4.93091065924));
#550 = CARTESIAN_POINT('',(34.270717797775,-5.136853991874));
#551 = CARTESIAN_POINT('',(34.318819585794,-5.243707461795));
#552 = CARTESIAN_POINT('',(34.359206066237,-5.353524292679));
#553 = CARTESIAN_POINT('',(34.391594352887,-5.465279107756));
#554 = CARTESIAN_POINT('',(34.415948668893,-5.577928285998));
#555 = CARTESIAN_POINT('',(34.448837017096,-5.802386352905));
#556 = CARTESIAN_POINT('',(34.457464943898,-5.914199382428));
#557 = CARTESIAN_POINT('',(34.458494774274,-6.024971312161));
#558 = CARTESIAN_POINT('',(34.452302408435,-6.133813784151));
#559 = CARTESIAN_POINT('',(34.439418650655,-6.239983437519));
#560 = CARTESIAN_POINT('',(34.420454545455,-6.342894361748));
#561 = ( GEOMETRIC_REPRESENTATION_CONTEXT(2) 
PARAMETRIC_REPRESENTATION_CONTEXT() REPRESENTATION_CONTEXT('2D SPACE',''
  ) );
#562 = PCURVE('',#563,#579);
#563 = ( BOUNDED_SURFACE() B_SPLINE_SURFACE(2,2,(
    (#564,#565,#566,#567,#568)
    ,(#569,#570,#571,#572,#573)
    ,(#574,#575,#576,#577,#578
)),.UNSPECIFIED.,.F.,.F.,.F.) B_SPLINE_SURFACE_WITH_KNOTS((3,3),(3,1,1,3
    ),(0.,8.),(-0.4896,-1.279189600452E-14,8.,8.4896),.UNSPECIFIED.) 
GEOMETRIC_REPRESENTATION_ITEM() RATIONAL_B_SPLINE_SURFACE((
    (1.,1.,1.,1.,1.)
    ,(0.780554760581,0.780554760581,0.780554760581,0.780554760581
      ,0.780554760581)
,(1.,1.,1.,1.,1.))) REPRESENTATION_ITEM('') SURFACE() );
#564 = CARTESIAN_POINT('',(33.237087912088,-4.140306869097,8.4896));
#565 = CARTESIAN_POINT('',(33.237087912088,-4.140306869097,8.2448));
#566 = CARTESIAN_POINT('',(33.237087912088,-4.140306869097,4.));
#567 = CARTESIAN_POINT('',(33.237087912088,-4.140306869097,-0.2448));
#568 = CARTESIAN_POINT('',(33.237087912088,-4.140306869097,-0.4896));
#569 = CARTESIAN_POINT('',(34.710714285714,-4.767766095978,8.4896));
#570 = CARTESIAN_POINT('',(34.710714285714,-4.767766095978,8.2448));
#571 = CARTESIAN_POINT('',(34.710714285714,-4.767766095978,4.));
#572 = CARTESIAN_POINT('',(34.710714285714,-4.767766095978,-0.2448));
#573 = CARTESIAN_POINT('',(34.710714285714,-4.767766095978,-0.4896));
#574 = CARTESIAN_POINT('',(34.420454545455,-6.342894361748,8.4896));
#575 = CARTESIAN_POINT('',(34.420454545455,-6.342894361748,8.2448));
#576 = CARTESIAN_POINT('',(34.420454545455,-6.342894361748,4.));
#577 = CARTESIAN_POINT('',(34.420454545455,-6.342894361748,-0.2448));
#578 = CARTESIAN_POINT('',(34.420454545455,-6.342894361748,-0.4896));
#579 = DEFINITIONAL_REPRESENTATION('',(#580),#603);
#580 = B_SPLINE_CURVE_WITH_KNOTS('',6,(#581,#582,#583,#584,#585,#586,
    #587,#588,#589,#590,#591,#592,#593,#594,#595,#596,#597,#598,#599,
    #600,#601,#602),.UNSPECIFIED.,.F.,.F.,(7,5,5,5,7),(0.,0.249253325545
    ,0.5,0.750746674455,1.),.UNSPECIFIED.);
#581 = CARTESIAN_POINT('',(0.,8.));
#582 = CARTESIAN_POINT('',(0.334812888811,8.));
#583 = CARTESIAN_POINT('',(0.668974097933,8.));
#584 = CARTESIAN_POINT('',(1.002509030619,8.));
#585 = CARTESIAN_POINT('',(1.335472297387,8.));
#586 = CARTESIAN_POINT('',(1.667943052553,8.));
#587 = CARTESIAN_POINT('',(2.334046396854,8.));
#588 = CARTESIAN_POINT('',(2.667683641459,8.));
#589 = CARTESIAN_POINT('',(3.000985779036,8.));
#590 = CARTESIAN_POINT('',(3.334062192648,8.));
#591 = CARTESIAN_POINT('',(3.667033992924,8.));
#592 = CARTESIAN_POINT('',(4.332966007076,8.));
#593 = CARTESIAN_POINT('',(4.665937807353,8.));
#594 = CARTESIAN_POINT('',(4.999014220963,8.));
#595 = CARTESIAN_POINT('',(5.332316358542,8.));
#596 = CARTESIAN_POINT('',(5.665953603146,8.));
#597 = CARTESIAN_POINT('',(6.332056947447,8.));
#598 = CARTESIAN_POINT('',(6.664527702611,8.));
#599 = CARTESIAN_POINT('',(6.997490969384,8.));
#600 = CARTESIAN_POINT('',(7.331025902065,8.));
#601 = CARTESIAN_POINT('',(7.66518711119,8.));
#602 = CARTESIAN_POINT('',(8.,8.));
#603 = ( GEOMETRIC_REPRESENTATION_CONTEXT(2) 
PARAMETRIC_REPRESENTATION_CONTEXT() REPRESENTATION_CONTEXT('2D SPACE',''
  ) );
#604 = FACE_BOUND('',#605,.F.);
#605 = EDGE_LOOP('',(#606));
#606 = ORIENTED_EDGE('',*,*,#607,.F.);
#607 = EDGE_CURVE('',#608,#608,#610,.T.);
#608 = VERTEX_POINT('',#609);
#609 = CARTESIAN_POINT('',(10.,0.,0.));
#610 = SURFACE_CURVE('',#611,(#616,#623),.PCURVE_S1.);
#611 = CIRCLE('',#612,10.);
#612 = AXIS2_PLACEMENT_3D('',#613,#614,#615);
#613 = CARTESIAN_POINT('',(-2.648593173732E-15,-2.22044604925E-15,0.));
#614 = DIRECTION('',(0.,0.,1.));
#615 = DIRECTION('',(1.,4.669739647545E-16,-0.));
#616 = PCURVE('',#45,#617);
#617 = DEFINITIONAL_REPRESENTATION('',(#618),#622);
#618 = CIRCLE('',#619,10.);
#619 = AXIS2_PLACEMENT_2D('',#620,#621);
#620 = CARTESIAN_POINT('',(-1.39836219541E-15,-3.292153406889E-15));
#621 = DIRECTION('',(1.,4.669739647545E-16));
#622 = ( GEOMETRIC_REPRESENTATION_CONTEXT(2) 
PARAMETRIC_REPRESENTATION_CONTEXT() REPRESENTATION_CONTEXT('2D SPACE',''
  ) );
#623 = PCURVE('',#624,#629);
#624 = CYLINDRICAL_SURFACE('',#625,10.);
#625 = AXIS2_PLACEMENT_3D('',#626,#627,#628);
#626 = CARTESIAN_POINT('',(0.,0.,-42.0000002));
#627 = DIRECTION('',(-0.,-0.,-1.));
#628 = DIRECTION('',(1.,0.,0.));
#629 = DEFINITIONAL_REPRESENTATION('',(#630),#634);
#630 = LINE('',#631,#632);
#631 = CARTESIAN_POINT('',(-0.,-42.0000002));
#632 = VECTOR('',#633,1.);
#633 = DIRECTION('',(-1.,-0.));
#634 = ( GEOMETRIC_REPRESENTATION_CONTEXT(2) 
PARAMETRIC_REPRESENTATION_CONTEXT() REPRESENTATION_CONTEXT('2D SPACE',''
  ) );
#635 = ADVANCED_FACE('',(#636),#74,.T.);
#636 = FACE_BOUND('',#637,.T.);
#637 = EDGE_LOOP('',(#638,#718,#740,#741));
#638 = ORIENTED_EDGE('',*,*,#639,.T.);
#639 = EDGE_CURVE('',#58,#640,#642,.T.);
#640 = VERTEX_POINT('',#641);
#641 = CARTESIAN_POINT('',(33.237087912088,4.140306869097,8.));
#642 = SURFACE_CURVE('',#643,(#666,#692),.PCURVE_S1.);
#643 = B_SPLINE_CURVE_WITH_KNOTS('',6,(#644,#645,#646,#647,#648,#649,
    #650,#651,#652,#653,#654,#655,#656,#657,#658,#659,#660,#661,#662,
    #663,#664,#665),.UNSPECIFIED.,.F.,.F.,(7,5,5,5,7),(0.,0.249253325545
    ,0.5,0.750746674456,1.),.UNSPECIFIED.);
#644 = CARTESIAN_POINT('',(34.420454545455,6.342894361748,8.));
#645 = CARTESIAN_POINT('',(34.439418650655,6.239983437519,8.));
#646 = CARTESIAN_POINT('',(34.452302408435,6.133813784151,8.));
#647 = CARTESIAN_POINT('',(34.458494774274,6.02497131216,8.));
#648 = CARTESIAN_POINT('',(34.457464943898,5.914199382428,8.));
#649 = CARTESIAN_POINT('',(34.448837017096,5.802386352905,8.));
#650 = CARTESIAN_POINT('',(34.415948668893,5.577928285998,8.));
#651 = CARTESIAN_POINT('',(34.391594352887,5.465279107755,8.));
#652 = CARTESIAN_POINT('',(34.359206066237,5.353524292679,8.));
#653 = CARTESIAN_POINT('',(34.318819585794,5.243707461795,8.));
#654 = CARTESIAN_POINT('',(34.270717797776,5.136853991874,8.));
#655 = CARTESIAN_POINT('',(34.160072264276,4.93091065924,8.));
#656 = CARTESIAN_POINT('',(34.097526646087,4.831817310875,8.));
#657 = CARTESIAN_POINT('',(34.028251132574,4.737521460619,8.));
#658 = CARTESIAN_POINT('',(33.95294456415,4.648825008846,8.));
#659 = CARTESIAN_POINT('',(33.872457401102,4.566333878104,8.));
#660 = CARTESIAN_POINT('',(33.703450765389,4.415006999024,8.));
#661 = CARTESIAN_POINT('',(33.614979670798,4.346090672118,8.));
#662 = CARTESIAN_POINT('',(33.523182449067,4.284084615564,8.));
#663 = CARTESIAN_POINT('',(33.429007346776,4.22916577351,8.));
#664 = CARTESIAN_POINT('',(33.333367215415,4.181301885413,8.));
#665 = CARTESIAN_POINT('',(33.237087912088,4.140306869097,8.));
#666 = PCURVE('',#74,#667);
#667 = DEFINITIONAL_REPRESENTATION('',(#668),#691);
#668 = B_SPLINE_CURVE_WITH_KNOTS('',6,(#669,#670,#671,#672,#673,#674,
    #675,#676,#677,#678,#679,#680,#681,#682,#683,#684,#685,#686,#687,
    #688,#689,#690),.UNSPECIFIED.,.F.,.F.,(7,5,5,5,7),(0.,0.249253325545
    ,0.5,0.750746674456,1.),.UNSPECIFIED.);
#669 = CARTESIAN_POINT('',(0.,-1.224974982561E-14));
#670 = CARTESIAN_POINT('',(0.334812888811,-1.224974982561E-14));
#671 = CARTESIAN_POINT('',(0.668974097934,-1.536489530196E-14));
#672 = CARTESIAN_POINT('',(1.002509030618,-6.879326090923E-15));
#673 = CARTESIAN_POINT('',(1.335472297388,-1.684019480656E-14));
#674 = CARTESIAN_POINT('',(1.667943052553,-1.138537955875E-14));
#675 = CARTESIAN_POINT('',(2.334046396854,-1.136471022001E-14));
#676 = CARTESIAN_POINT('',(2.667683641459,-1.49812572542E-14));
#677 = CARTESIAN_POINT('',(3.000985779036,-1.165025175485E-14));
#678 = CARTESIAN_POINT('',(3.334062192647,-1.089207194944E-14));
#679 = CARTESIAN_POINT('',(3.667033992924,-1.313062584258E-14));
#680 = CARTESIAN_POINT('',(4.332966007076,-1.313302047562E-14));
#681 = CARTESIAN_POINT('',(4.665937807353,-1.004625406523E-14));
#682 = CARTESIAN_POINT('',(4.999014220963,-1.41739021097E-14));
#683 = CARTESIAN_POINT('',(5.332316358541,-1.203519626873E-14));
#684 = CARTESIAN_POINT('',(5.665953603146,-1.225450209965E-14));
#685 = CARTESIAN_POINT('',(6.332056947446,-1.228184561182E-14));
#686 = CARTESIAN_POINT('',(6.664527702614,-1.278125701022E-14));
#687 = CARTESIAN_POINT('',(6.99749096938,-1.114987606839E-14));
#688 = CARTESIAN_POINT('',(7.331025902067,-1.355172751231E-14));
#689 = CARTESIAN_POINT('',(7.665187111189,-1.231356334181E-14));
#690 = CARTESIAN_POINT('',(8.,-1.233214919072E-14));
#691 = ( GEOMETRIC_REPRESENTATION_CONTEXT(2) 
PARAMETRIC_REPRESENTATION_CONTEXT() REPRESENTATION_CONTEXT('2D SPACE',''
  ) );
#692 = PCURVE('',#114,#693);
#693 = DEFINITIONAL_REPRESENTATION('',(#694),#717);
#694 = B_SPLINE_CURVE_WITH_KNOTS('',6,(#695,#696,#697,#698,#699,#700,
    #701,#702,#703,#704,#705,#706,#707,#708,#709,#710,#711,#712,#713,
    #714,#715,#716),.UNSPECIFIED.,.F.,.F.,(7,5,5,5,7),(0.,0.249253325545
    ,0.5,0.750746674456,1.),.UNSPECIFIED.);
#695 = CARTESIAN_POINT('',(34.420454545455,6.342894361748));
#696 = CARTESIAN_POINT('',(34.439418650655,6.239983437519));
#697 = CARTESIAN_POINT('',(34.452302408435,6.133813784151));
#698 = CARTESIAN_POINT('',(34.458494774274,6.02497131216));
#699 = CARTESIAN_POINT('',(34.457464943898,5.914199382428));
#700 = CARTESIAN_POINT('',(34.448837017096,5.802386352905));
#701 = CARTESIAN_POINT('',(34.415948668893,5.577928285998));
#702 = CARTESIAN_POINT('',(34.391594352887,5.465279107755));
#703 = CARTESIAN_POINT('',(34.359206066237,5.353524292679));
#704 = CARTESIAN_POINT('',(34.318819585794,5.243707461795));
#705 = CARTESIAN_POINT('',(34.270717797776,5.136853991874));
#706 = CARTESIAN_POINT('',(34.160072264276,4.93091065924));
#707 = CARTESIAN_POINT('',(34.097526646087,4.831817310875));
#708 = CARTESIAN_POINT('',(34.028251132574,4.737521460619));
#709 = CARTESIAN_POINT('',(33.95294456415,4.648825008846));
#710 = CARTESIAN_POINT('',(33.872457401102,4.566333878104));
#711 = CARTESIAN_POINT('',(33.703450765389,4.415006999024));
#712 = CARTESIAN_POINT('',(33.614979670798,4.346090672118));
#713 = CARTESIAN_POINT('',(33.523182449067,4.284084615564));
#714 = CARTESIAN_POINT('',(33.429007346776,4.22916577351));
#715 = CARTESIAN_POINT('',(33.333367215415,4.181301885413));
#716 = CARTESIAN_POINT('',(33.237087912088,4.140306869097));
#717 = ( GEOMETRIC_REPRESENTATION_CONTEXT(2) 
PARAMETRIC_REPRESENTATION_CONTEXT() REPRESENTATION_CONTEXT('2D SPACE',''
  ) );
#718 = ORIENTED_EDGE('',*,*,#719,.T.);
#719 = EDGE_CURVE('',#640,#168,#720,.T.);
#720 = SURFACE_CURVE('',#721,(#727,#734),.PCURVE_S1.);
#721 = B_SPLINE_CURVE_WITH_KNOTS('',2,(#722,#723,#724,#725,#726),
  .UNSPECIFIED.,.F.,.F.,(3,1,1,3),(-0.4896,-1.213352335272E-14,8.,8.4896
    ),.UNSPECIFIED.);
#722 = CARTESIAN_POINT('',(33.237087912088,4.140306869097,8.4896));
#723 = CARTESIAN_POINT('',(33.237087912088,4.140306869097,8.2448));
#724 = CARTESIAN_POINT('',(33.237087912088,4.140306869097,4.));
#725 = CARTESIAN_POINT('',(33.237087912088,4.140306869097,-0.2448));
#726 = CARTESIAN_POINT('',(33.237087912088,4.140306869097,-0.4896));
#727 = PCURVE('',#74,#728);
#728 = DEFINITIONAL_REPRESENTATION('',(#729),#733);
#729 = LINE('',#730,#731);
#730 = CARTESIAN_POINT('',(8.,0.));
#731 = VECTOR('',#732,1.);
#732 = DIRECTION('',(0.,1.));
#733 = ( GEOMETRIC_REPRESENTATION_CONTEXT(2) 
PARAMETRIC_REPRESENTATION_CONTEXT() REPRESENTATION_CONTEXT('2D SPACE',''
  ) );
#734 = PCURVE('',#186,#735);
#735 = DEFINITIONAL_REPRESENTATION('',(#736),#739);
#736 = B_SPLINE_CURVE_WITH_KNOTS('',1,(#737,#738),.UNSPECIFIED.,.F.,.F.,
  (2,2),(-1.213352335272E-14,8.),.PIECEWISE_BEZIER_KNOTS.);
#737 = CARTESIAN_POINT('',(-1.973338134514,-50.0000002));
#738 = CARTESIAN_POINT('',(-1.973338134514,-42.0000002));
#739 = ( GEOMETRIC_REPRESENTATION_CONTEXT(2) 
PARAMETRIC_REPRESENTATION_CONTEXT() REPRESENTATION_CONTEXT('2D SPACE',''
  ) );
#740 = ORIENTED_EDGE('',*,*,#198,.F.);
#741 = ORIENTED_EDGE('',*,*,#57,.F.);
#742 = ADVANCED_FACE('',(#743),#141,.F.);
#743 = FACE_BOUND('',#744,.F.);
#744 = EDGE_LOOP('',(#745,#825,#847,#848));
#745 = ORIENTED_EDGE('',*,*,#746,.T.);
#746 = EDGE_CURVE('',#98,#747,#749,.T.);
#747 = VERTEX_POINT('',#748);
#748 = CARTESIAN_POINT('',(4.140306869097,33.237087912088,8.));
#749 = SURFACE_CURVE('',#750,(#773,#799),.PCURVE_S1.);
#750 = B_SPLINE_CURVE_WITH_KNOTS('',6,(#751,#752,#753,#754,#755,#756,
    #757,#758,#759,#760,#761,#762,#763,#764,#765,#766,#767,#768,#769,
    #770,#771,#772),.UNSPECIFIED.,.F.,.F.,(7,5,5,5,7),(0.,0.249253325544
    ,0.5,0.750746674455,1.),.UNSPECIFIED.);
#751 = CARTESIAN_POINT('',(6.342894361748,34.420454545455,8.));
#752 = CARTESIAN_POINT('',(6.239983437519,34.439418650655,8.));
#753 = CARTESIAN_POINT('',(6.133813784151,34.452302408435,8.));
#754 = CARTESIAN_POINT('',(6.02497131216,34.458494774274,8.));
#755 = CARTESIAN_POINT('',(5.914199382428,34.457464943898,8.));
#756 = CARTESIAN_POINT('',(5.802386352905,34.448837017096,8.));
#757 = CARTESIAN_POINT('',(5.577928285998,34.415948668893,8.));
#758 = CARTESIAN_POINT('',(5.465279107756,34.391594352887,8.));
#759 = CARTESIAN_POINT('',(5.353524292679,34.359206066237,8.));
#760 = CARTESIAN_POINT('',(5.243707461795,34.318819585794,8.));
#761 = CARTESIAN_POINT('',(5.136853991874,34.270717797775,8.));
#762 = CARTESIAN_POINT('',(4.93091065924,34.160072264276,8.));
#763 = CARTESIAN_POINT('',(4.831817310875,34.097526646087,8.));
#764 = CARTESIAN_POINT('',(4.737521460619,34.028251132574,8.));
#765 = CARTESIAN_POINT('',(4.648825008846,33.95294456415,8.));
#766 = CARTESIAN_POINT('',(4.566333878104,33.872457401102,8.));
#767 = CARTESIAN_POINT('',(4.415006999023,33.703450765388,8.));
#768 = CARTESIAN_POINT('',(4.346090672119,33.614979670799,8.));
#769 = CARTESIAN_POINT('',(4.284084615563,33.523182449066,8.));
#770 = CARTESIAN_POINT('',(4.229165773511,33.429007346777,8.));
#771 = CARTESIAN_POINT('',(4.181301885413,33.333367215414,8.));
#772 = CARTESIAN_POINT('',(4.140306869097,33.237087912088,8.));
#773 = PCURVE('',#141,#774);
#774 = DEFINITIONAL_REPRESENTATION('',(#775),#798);
#775 = B_SPLINE_CURVE_WITH_KNOTS('',6,(#776,#777,#778,#779,#780,#781,
    #782,#783,#784,#785,#786,#787,#788,#789,#790,#791,#792,#793,#794,
    #795,#796,#797),.UNSPECIFIED.,.F.,.F.,(7,5,5,5,7),(0.,0.249253325544
    ,0.5,0.750746674455,1.),.UNSPECIFIED.);
#776 = CARTESIAN_POINT('',(0.,-1.3900339213E-14));
#777 = CARTESIAN_POINT('',(0.334812888811,-1.3900339213E-14));
#778 = CARTESIAN_POINT('',(0.668974097934,-1.00348532E-14));
#779 = CARTESIAN_POINT('',(1.002509030618,-1.860891311032E-14));
#780 = CARTESIAN_POINT('',(1.335472297388,-1.050253131476E-14));
#781 = CARTESIAN_POINT('',(1.667943052553,-1.39038919641E-14));
#782 = CARTESIAN_POINT('',(2.334046396854,-1.3924037894E-14));
#783 = CARTESIAN_POINT('',(2.667683641459,-1.184290548644E-14));
#784 = CARTESIAN_POINT('',(3.000985779037,-1.352739865541E-14));
#785 = CARTESIAN_POINT('',(3.334062192647,-1.592070643634E-14));
#786 = CARTESIAN_POINT('',(3.667033992924,-1.3036992805E-14));
#787 = CARTESIAN_POINT('',(4.332966007076,-1.301850947863E-14));
#788 = CARTESIAN_POINT('',(4.665937807353,-1.707817800095E-14));
#789 = CARTESIAN_POINT('',(4.999014220963,-1.131560586917E-14));
#790 = CARTESIAN_POINT('',(5.332316358542,-1.282923271072E-14));
#791 = CARTESIAN_POINT('',(5.665953603146,-1.390454505627E-14));
#792 = CARTESIAN_POINT('',(6.332056947447,-1.392469098617E-14));
#793 = CARTESIAN_POINT('',(6.664527702611,-1.24322353358E-14));
#794 = CARTESIAN_POINT('',(6.997490969384,-1.39319882278E-14));
#795 = CARTESIAN_POINT('',(7.331025902064,-1.369505398232E-14));
#796 = CARTESIAN_POINT('',(7.66518711119,-1.3018541979E-14));
#797 = CARTESIAN_POINT('',(8.,-1.301389551678E-14));
#798 = ( GEOMETRIC_REPRESENTATION_CONTEXT(2) 
PARAMETRIC_REPRESENTATION_CONTEXT() REPRESENTATION_CONTEXT('2D SPACE',''
  ) );
#799 = PCURVE('',#114,#800);
#800 = DEFINITIONAL_REPRESENTATION('',(#801),#824);
#801 = B_SPLINE_CURVE_WITH_KNOTS('',6,(#802,#803,#804,#805,#806,#807,
    #808,#809,#810,#811,#812,#813,#814,#815,#816,#817,#818,#819,#820,
    #821,#822,#823),.UNSPECIFIED.,.F.,.F.,(7,5,5,5,7),(0.,0.249253325544
    ,0.5,0.750746674455,1.),.UNSPECIFIED.);
#802 = CARTESIAN_POINT('',(6.342894361748,34.420454545455));
#803 = CARTESIAN_POINT('',(6.239983437519,34.439418650655));
#804 = CARTESIAN_POINT('',(6.133813784151,34.452302408435));
#805 = CARTESIAN_POINT('',(6.02497131216,34.458494774274));
#806 = CARTESIAN_POINT('',(5.914199382428,34.457464943898));
#807 = CARTESIAN_POINT('',(5.802386352905,34.448837017096));
#808 = CARTESIAN_POINT('',(5.577928285998,34.415948668893));
#809 = CARTESIAN_POINT('',(5.465279107756,34.391594352887));
#810 = CARTESIAN_POINT('',(5.353524292679,34.359206066237));
#811 = CARTESIAN_POINT('',(5.243707461795,34.318819585794));
#812 = CARTESIAN_POINT('',(5.136853991874,34.270717797775));
#813 = CARTESIAN_POINT('',(4.93091065924,34.160072264276));
#814 = CARTESIAN_POINT('',(4.831817310875,34.097526646087));
#815 = CARTESIAN_POINT('',(4.737521460619,34.028251132574));
#816 = CARTESIAN_POINT('',(4.648825008846,33.95294456415));
#817 = CARTESIAN_POINT('',(4.566333878104,33.872457401102));
#818 = CARTESIAN_POINT('',(4.415006999023,33.703450765388));
#819 = CARTESIAN_POINT('',(4.346090672119,33.614979670799));
#820 = CARTESIAN_POINT('',(4.284084615563,33.523182449066));
#821 = CARTESIAN_POINT('',(4.229165773511,33.429007346777));
#822 = CARTESIAN_POINT('',(4.181301885413,33.333367215414));
#823 = CARTESIAN_POINT('',(4.140306869097,33.237087912088));
#824 = ( GEOMETRIC_REPRESENTATION_CONTEXT(2) 
PARAMETRIC_REPRESENTATION_CONTEXT() REPRESENTATION_CONTEXT('2D SPACE',''
  ) );
#825 = ORIENTED_EDGE('',*,*,#826,.T.);
#826 = EDGE_CURVE('',#747,#278,#827,.T.);
#827 = SURFACE_CURVE('',#828,(#834,#841),.PCURVE_S1.);
#828 = B_SPLINE_CURVE_WITH_KNOTS('',2,(#829,#830,#831,#832,#833),
  .UNSPECIFIED.,.F.,.F.,(3,1,1,3),(-0.4896,-1.279189600452E-14,8.,8.4896
    ),.UNSPECIFIED.);
#829 = CARTESIAN_POINT('',(4.140306869097,33.237087912088,8.4896));
#830 = CARTESIAN_POINT('',(4.140306869097,33.237087912088,8.2448));
#831 = CARTESIAN_POINT('',(4.140306869097,33.237087912088,4.));
#832 = CARTESIAN_POINT('',(4.140306869097,33.237087912088,-0.2448));
#833 = CARTESIAN_POINT('',(4.140306869097,33.237087912088,-0.4896));
#834 = PCURVE('',#141,#835);
#835 = DEFINITIONAL_REPRESENTATION('',(#836),#840);
#836 = LINE('',#837,#838);
#837 = CARTESIAN_POINT('',(8.,0.));
#838 = VECTOR('',#839,1.);
#839 = DIRECTION('',(0.,1.));
#840 = ( GEOMETRIC_REPRESENTATION_CONTEXT(2) 
PARAMETRIC_REPRESENTATION_CONTEXT() REPRESENTATION_CONTEXT('2D SPACE',''
  ) );
#841 = PCURVE('',#374,#842);
#842 = DEFINITIONAL_REPRESENTATION('',(#843),#846);
#843 = B_SPLINE_CURVE_WITH_KNOTS('',1,(#844,#845),.UNSPECIFIED.,.F.,.F.,
  (2,2),(-1.279189600452E-14,8.),.PIECEWISE_BEZIER_KNOTS.);
#844 = CARTESIAN_POINT('',(-5.880643499461,-50.0000002));
#845 = CARTESIAN_POINT('',(-5.880643499461,-42.0000002));
#846 = ( GEOMETRIC_REPRESENTATION_CONTEXT(2) 
PARAMETRIC_REPRESENTATION_CONTEXT() REPRESENTATION_CONTEXT('2D SPACE',''
  ) );
#847 = ORIENTED_EDGE('',*,*,#277,.F.);
#848 = ORIENTED_EDGE('',*,*,#126,.F.);
#849 = ADVANCED_FACE('',(#850,#1085),#114,.T.);
#850 = FACE_BOUND('',#851,.T.);
#851 = EDGE_LOOP('',(#852,#876,#877,#878,#879,#903,#983,#1007));
#852 = ORIENTED_EDGE('',*,*,#853,.F.);
#853 = EDGE_CURVE('',#640,#854,#856,.T.);
#854 = VERTEX_POINT('',#855);
#855 = CARTESIAN_POINT('',(33.237087912088,-4.140306869097,8.));
#856 = SURFACE_CURVE('',#857,(#862,#869),.PCURVE_S1.);
#857 = CIRCLE('',#858,4.5);
#858 = AXIS2_PLACEMENT_3D('',#859,#860,#861);
#859 = CARTESIAN_POINT('',(35.,0.,8.));
#860 = DIRECTION('',(0.,0.,1.));
#861 = DIRECTION('',(-6.428571428571E-02,0.997931534194,0.));
#862 = PCURVE('',#114,#863);
#863 = DEFINITIONAL_REPRESENTATION('',(#864),#868);
#864 = CIRCLE('',#865,4.5);
#865 = AXIS2_PLACEMENT_2D('',#866,#867);
#866 = CARTESIAN_POINT('',(35.,-1.071707357638E-15));
#867 = DIRECTION('',(-6.428571428571E-02,0.997931534194));
#868 = ( GEOMETRIC_REPRESENTATION_CONTEXT(2) 
PARAMETRIC_REPRESENTATION_CONTEXT() REPRESENTATION_CONTEXT('2D SPACE',''
  ) );
#869 = PCURVE('',#186,#870);
#870 = DEFINITIONAL_REPRESENTATION('',(#871),#875);
#871 = LINE('',#872,#873);
#872 = CARTESIAN_POINT('',(-1.635126402054,-50.0000002));
#873 = VECTOR('',#874,1.);
#874 = DIRECTION('',(-1.,-0.));
#875 = ( GEOMETRIC_REPRESENTATION_CONTEXT(2) 
PARAMETRIC_REPRESENTATION_CONTEXT() REPRESENTATION_CONTEXT('2D SPACE',''
  ) );
#876 = ORIENTED_EDGE('',*,*,#639,.F.);
#877 = ORIENTED_EDGE('',*,*,#97,.T.);
#878 = ORIENTED_EDGE('',*,*,#746,.T.);
#879 = ORIENTED_EDGE('',*,*,#880,.F.);
#880 = EDGE_CURVE('',#881,#747,#883,.T.);
#881 = VERTEX_POINT('',#882);
#882 = CARTESIAN_POINT('',(-4.140306869097,33.237087912088,8.));
#883 = SURFACE_CURVE('',#884,(#889,#896),.PCURVE_S1.);
#884 = CIRCLE('',#885,4.5);
#885 = AXIS2_PLACEMENT_3D('',#886,#887,#888);
#886 = CARTESIAN_POINT('',(0.,35.,8.));
#887 = DIRECTION('',(0.,0.,1.));
#888 = DIRECTION('',(-0.997931534194,-6.428571428572E-02,0.));
#889 = PCURVE('',#114,#890);
#890 = DEFINITIONAL_REPRESENTATION('',(#891),#895);
#891 = CIRCLE('',#892,4.5);
#892 = AXIS2_PLACEMENT_2D('',#893,#894);
#893 = CARTESIAN_POINT('',(1.250230978322E-15,35.));
#894 = DIRECTION('',(-0.997931534194,-6.428571428572E-02));
#895 = ( GEOMETRIC_REPRESENTATION_CONTEXT(2) 
PARAMETRIC_REPRESENTATION_CONTEXT() REPRESENTATION_CONTEXT('2D SPACE',''
  ) );
#896 = PCURVE('',#374,#897);
#897 = DEFINITIONAL_REPRESENTATION('',(#898),#902);
#898 = LINE('',#899,#900);
#899 = CARTESIAN_POINT('',(-3.205922728849,-50.0000002));
#900 = VECTOR('',#901,1.);
#901 = DIRECTION('',(-1.,-0.));
#902 = ( GEOMETRIC_REPRESENTATION_CONTEXT(2) 
PARAMETRIC_REPRESENTATION_CONTEXT() REPRESENTATION_CONTEXT('2D SPACE',''
  ) );
#903 = ORIENTED_EDGE('',*,*,#904,.T.);
#904 = EDGE_CURVE('',#881,#905,#907,.T.);
#905 = VERTEX_POINT('',#906);
#906 = CARTESIAN_POINT('',(-6.342894361748,34.420454545455,8.));
#907 = SURFACE_CURVE('',#908,(#931,#957),.PCURVE_S1.);
#908 = B_SPLINE_CURVE_WITH_KNOTS('',6,(#909,#910,#911,#912,#913,#914,
    #915,#916,#917,#918,#919,#920,#921,#922,#923,#924,#925,#926,#927,
    #928,#929,#930),.UNSPECIFIED.,.F.,.F.,(7,5,5,5,7),(0.,0.249253325545
    ,0.5,0.750746674456,1.),.UNSPECIFIED.);
#909 = CARTESIAN_POINT('',(-4.140306869097,33.237087912088,8.));
#910 = CARTESIAN_POINT('',(-4.181301885413,33.333367215415,8.));
#911 = CARTESIAN_POINT('',(-4.229165773511,33.429007346776,8.));
#912 = CARTESIAN_POINT('',(-4.284084615564,33.523182449067,8.));
#913 = CARTESIAN_POINT('',(-4.346090672118,33.614979670798,8.));
#914 = CARTESIAN_POINT('',(-4.415006999023,33.703450765389,8.));
#915 = CARTESIAN_POINT('',(-4.566333878104,33.872457401102,8.));
#916 = CARTESIAN_POINT('',(-4.648825008846,33.95294456415,8.));
#917 = CARTESIAN_POINT('',(-4.737521460619,34.028251132574,8.));
#918 = CARTESIAN_POINT('',(-4.831817310875,34.097526646087,8.));
#919 = CARTESIAN_POINT('',(-4.93091065924,34.160072264276,8.));
#920 = CARTESIAN_POINT('',(-5.136853991874,34.270717797775,8.));
#921 = CARTESIAN_POINT('',(-5.243707461795,34.318819585794,8.));
#922 = CARTESIAN_POINT('',(-5.353524292679,34.359206066237,8.));
#923 = CARTESIAN_POINT('',(-5.465279107756,34.391594352887,8.));
#924 = CARTESIAN_POINT('',(-5.577928285998,34.415948668893,8.));
#925 = CARTESIAN_POINT('',(-5.802386352905,34.448837017096,8.));
#926 = CARTESIAN_POINT('',(-5.914199382428,34.457464943898,8.));
#927 = CARTESIAN_POINT('',(-6.02497131216,34.458494774274,8.));
#928 = CARTESIAN_POINT('',(-6.133813784151,34.452302408435,8.));
#929 = CARTESIAN_POINT('',(-6.239983437519,34.439418650655,8.));
#930 = CARTESIAN_POINT('',(-6.342894361748,34.420454545455,8.));
#931 = PCURVE('',#114,#932);
#932 = DEFINITIONAL_REPRESENTATION('',(#933),#956);
#933 = B_SPLINE_CURVE_WITH_KNOTS('',6,(#934,#935,#936,#937,#938,#939,
    #940,#941,#942,#943,#944,#945,#946,#947,#948,#949,#950,#951,#952,
    #953,#954,#955),.UNSPECIFIED.,.F.,.F.,(7,5,5,5,7),(0.,0.249253325545
    ,0.5,0.750746674456,1.),.UNSPECIFIED.);
#934 = CARTESIAN_POINT('',(-4.140306869097,33.237087912088));
#935 = CARTESIAN_POINT('',(-4.181301885413,33.333367215415));
#936 = CARTESIAN_POINT('',(-4.229165773511,33.429007346776));
#937 = CARTESIAN_POINT('',(-4.284084615564,33.523182449067));
#938 = CARTESIAN_POINT('',(-4.346090672118,33.614979670798));
#939 = CARTESIAN_POINT('',(-4.415006999023,33.703450765389));
#940 = CARTESIAN_POINT('',(-4.566333878104,33.872457401102));
#941 = CARTESIAN_POINT('',(-4.648825008846,33.95294456415));
#942 = CARTESIAN_POINT('',(-4.737521460619,34.028251132574));
#943 = CARTESIAN_POINT('',(-4.831817310875,34.097526646087));
#944 = CARTESIAN_POINT('',(-4.93091065924,34.160072264276));
#945 = CARTESIAN_POINT('',(-5.136853991874,34.270717797775));
#946 = CARTESIAN_POINT('',(-5.243707461795,34.318819585794));
#947 = CARTESIAN_POINT('',(-5.353524292679,34.359206066237));
#948 = CARTESIAN_POINT('',(-5.465279107756,34.391594352887));
#949 = CARTESIAN_POINT('',(-5.577928285998,34.415948668893));
#950 = CARTESIAN_POINT('',(-5.802386352905,34.448837017096));
#951 = CARTESIAN_POINT('',(-5.914199382428,34.457464943898));
#952 = CARTESIAN_POINT('',(-6.02497131216,34.458494774274));
#953 = CARTESIAN_POINT('',(-6.133813784151,34.452302408435));
#954 = CARTESIAN_POINT('',(-6.239983437519,34.439418650655));
#955 = CARTESIAN_POINT('',(-6.342894361748,34.420454545455));
#956 = ( GEOMETRIC_REPRESENTATION_CONTEXT(2) 
PARAMETRIC_REPRESENTATION_CONTEXT() REPRESENTATION_CONTEXT('2D SPACE',''
  ) );
#957 = PCURVE('',#440,#958);
#958 = DEFINITIONAL_REPRESENTATION('',(#959),#982);
#959 = B_SPLINE_CURVE_WITH_KNOTS('',6,(#960,#961,#962,#963,#964,#965,
    #966,#967,#968,#969,#970,#971,#972,#973,#974,#975,#976,#977,#978,
    #979,#980,#981),.UNSPECIFIED.,.F.,.F.,(7,5,5,5,7),(0.,0.249253325545
    ,0.5,0.750746674456,1.),.UNSPECIFIED.);
#960 = CARTESIAN_POINT('',(0.,-1.229225055077E-14));
#961 = CARTESIAN_POINT('',(0.334812888811,-1.225507885296E-14));
#962 = CARTESIAN_POINT('',(0.668974097934,-1.629147323666E-14));
#963 = CARTESIAN_POINT('',(1.002509030619,-7.807252122993E-15));
#964 = CARTESIAN_POINT('',(1.335472297387,-1.471084606122E-14));
#965 = CARTESIAN_POINT('',(1.667943052553,-1.203064831145E-14));
#966 = CARTESIAN_POINT('',(2.334046396855,-1.201050238156E-14));
#967 = CARTESIAN_POINT('',(2.667683641458,-1.180143961952E-14));
#968 = CARTESIAN_POINT('',(3.000985779037,-1.284498462967E-14));
#969 = CARTESIAN_POINT('',(3.334062192647,-1.165337947771E-14));
#970 = CARTESIAN_POINT('',(3.667033992924,-1.197262585074E-14));
#971 = CARTESIAN_POINT('',(4.332966007076,-1.197502048377E-14));
#972 = CARTESIAN_POINT('',(4.665937807354,-1.247793706902E-14));
#973 = CARTESIAN_POINT('',(4.999014220962,-1.051600333726E-14));
#974 = CARTESIAN_POINT('',(5.332316358542,-1.352049033249E-14));
#975 = CARTESIAN_POINT('',(5.665953603145,-1.200310790465E-14));
#976 = CARTESIAN_POINT('',(6.332056947447,-1.204366400207E-14));
#977 = CARTESIAN_POINT('',(6.664527702612,-1.068436359326E-14));
#978 = CARTESIAN_POINT('',(6.997490969382,-1.538161783143E-14));
#979 = CARTESIAN_POINT('',(7.331025902066,-1.01553463395E-14));
#980 = CARTESIAN_POINT('',(7.66518711119,-1.301389551678E-14));
#981 = CARTESIAN_POINT('',(8.,-1.301389551678E-14));
#982 = ( GEOMETRIC_REPRESENTATION_CONTEXT(2) 
PARAMETRIC_REPRESENTATION_CONTEXT() REPRESENTATION_CONTEXT('2D SPACE',''
  ) );
#983 = ORIENTED_EDGE('',*,*,#984,.T.);
#984 = EDGE_CURVE('',#905,#985,#987,.T.);
#985 = VERTEX_POINT('',#986);
#986 = CARTESIAN_POINT('',(34.420454545455,-6.342894361748,8.));
#987 = SURFACE_CURVE('',#988,(#993,#1000),.PCURVE_S1.);
#988 = CIRCLE('',#989,35.);
#989 = AXIS2_PLACEMENT_3D('',#990,#991,#992);
#990 = CARTESIAN_POINT('',(0.,0.,8.));
#991 = DIRECTION('',(0.,0.,1.));
#992 = DIRECTION('',(1.,0.,0.));
#993 = PCURVE('',#114,#994);
#994 = DEFINITIONAL_REPRESENTATION('',(#995),#999);
#995 = CIRCLE('',#996,35.);
#996 = AXIS2_PLACEMENT_2D('',#997,#998);
#997 = CARTESIAN_POINT('',(1.250230978322E-15,-1.071707357638E-15));
#998 = DIRECTION('',(1.,0.));
#999 = ( GEOMETRIC_REPRESENTATION_CONTEXT(2) 
PARAMETRIC_REPRESENTATION_CONTEXT() REPRESENTATION_CONTEXT('2D SPACE',''
  ) );
#1000 = PCURVE('',#499,#1001);
#1001 = DEFINITIONAL_REPRESENTATION('',(#1002),#1006);
#1002 = LINE('',#1003,#1004);
#1003 = CARTESIAN_POINT('',(-0.,-8.));
#1004 = VECTOR('',#1005,1.);
#1005 = DIRECTION('',(-1.,0.));
#1006 = ( GEOMETRIC_REPRESENTATION_CONTEXT(2) 
PARAMETRIC_REPRESENTATION_CONTEXT() REPRESENTATION_CONTEXT('2D SPACE',''
  ) );
#1007 = ORIENTED_EDGE('',*,*,#1008,.F.);
#1008 = EDGE_CURVE('',#854,#985,#1009,.T.);
#1009 = SURFACE_CURVE('',#1010,(#1033,#1059),.PCURVE_S1.);
#1010 = B_SPLINE_CURVE_WITH_KNOTS('',6,(#1011,#1012,#1013,#1014,#1015,
    #1016,#1017,#1018,#1019,#1020,#1021,#1022,#1023,#1024,#1025,#1026,
    #1027,#1028,#1029,#1030,#1031,#1032),.UNSPECIFIED.,.F.,.F.,(7,5,5,5,
    7),(0.,0.249253325545,0.5,0.750746674455,1.),.UNSPECIFIED.);
#1011 = CARTESIAN_POINT('',(33.237087912088,-4.140306869097,8.));
#1012 = CARTESIAN_POINT('',(33.333367215415,-4.181301885413,8.));
#1013 = CARTESIAN_POINT('',(33.429007346776,-4.229165773511,8.));
#1014 = CARTESIAN_POINT('',(33.523182449067,-4.284084615564,8.));
#1015 = CARTESIAN_POINT('',(33.614979670798,-4.346090672118,8.));
#1016 = CARTESIAN_POINT('',(33.703450765389,-4.415006999023,8.));
#1017 = CARTESIAN_POINT('',(33.872457401102,-4.566333878104,8.));
#1018 = CARTESIAN_POINT('',(33.95294456415,-4.648825008846,8.));
#1019 = CARTESIAN_POINT('',(34.028251132573,-4.737521460619,8.));
#1020 = CARTESIAN_POINT('',(34.097526646087,-4.831817310876,8.));
#1021 = CARTESIAN_POINT('',(34.160072264276,-4.93091065924,8.));
#1022 = CARTESIAN_POINT('',(34.270717797775,-5.136853991874,8.));
#1023 = CARTESIAN_POINT('',(34.318819585794,-5.243707461795,8.));
#1024 = CARTESIAN_POINT('',(34.359206066237,-5.353524292679,8.));
#1025 = CARTESIAN_POINT('',(34.391594352887,-5.465279107756,8.));
#1026 = CARTESIAN_POINT('',(34.415948668893,-5.577928285998,8.));
#1027 = CARTESIAN_POINT('',(34.448837017096,-5.802386352905,8.));
#1028 = CARTESIAN_POINT('',(34.457464943898,-5.914199382428,8.));
#1029 = CARTESIAN_POINT('',(34.458494774274,-6.024971312161,8.));
#1030 = CARTESIAN_POINT('',(34.452302408435,-6.133813784151,8.));
#1031 = CARTESIAN_POINT('',(34.439418650655,-6.239983437519,8.));
#1032 = CARTESIAN_POINT('',(34.420454545455,-6.342894361748,8.));
#1033 = PCURVE('',#114,#1034);
#1034 = DEFINITIONAL_REPRESENTATION('',(#1035),#1058);
#1035 = B_SPLINE_CURVE_WITH_KNOTS('',6,(#1036,#1037,#1038,#1039,#1040,
    #1041,#1042,#1043,#1044,#1045,#1046,#1047,#1048,#1049,#1050,#1051,
    #1052,#1053,#1054,#1055,#1056,#1057),.UNSPECIFIED.,.F.,.F.,(7,5,5,5,
    7),(0.,0.249253325545,0.5,0.750746674455,1.),.UNSPECIFIED.);
#1036 = CARTESIAN_POINT('',(33.237087912088,-4.140306869097));
#1037 = CARTESIAN_POINT('',(33.333367215415,-4.181301885413));
#1038 = CARTESIAN_POINT('',(33.429007346776,-4.229165773511));
#1039 = CARTESIAN_POINT('',(33.523182449067,-4.284084615564));
#1040 = CARTESIAN_POINT('',(33.614979670798,-4.346090672118));
#1041 = CARTESIAN_POINT('',(33.703450765389,-4.415006999023));
#1042 = CARTESIAN_POINT('',(33.872457401102,-4.566333878104));
#1043 = CARTESIAN_POINT('',(33.95294456415,-4.648825008846));
#1044 = CARTESIAN_POINT('',(34.028251132573,-4.737521460619));
#1045 = CARTESIAN_POINT('',(34.097526646087,-4.831817310876));
#1046 = CARTESIAN_POINT('',(34.160072264276,-4.93091065924));
#1047 = CARTESIAN_POINT('',(34.270717797775,-5.136853991874));
#1048 = CARTESIAN_POINT('',(34.318819585794,-5.243707461795));
#1049 = CARTESIAN_POINT('',(34.359206066237,-5.353524292679));
#1050 = CARTESIAN_POINT('',(34.391594352887,-5.465279107756));
#1051 = CARTESIAN_POINT('',(34.415948668893,-5.577928285998));
#1052 = CARTESIAN_POINT('',(34.448837017096,-5.802386352905));
#1053 = CARTESIAN_POINT('',(34.457464943898,-5.914199382428));
#1054 = CARTESIAN_POINT('',(34.458494774274,-6.024971312161));
#1055 = CARTESIAN_POINT('',(34.452302408435,-6.133813784151));
#1056 = CARTESIAN_POINT('',(34.439418650655,-6.239983437519));
#1057 = CARTESIAN_POINT('',(34.420454545455,-6.342894361748));
#1058 = ( GEOMETRIC_REPRESENTATION_CONTEXT(2) 
PARAMETRIC_REPRESENTATION_CONTEXT() REPRESENTATION_CONTEXT('2D SPACE',''
  ) );
#1059 = PCURVE('',#563,#1060);
#1060 = DEFINITIONAL_REPRESENTATION('',(#1061),#1084);
#1061 = B_SPLINE_CURVE_WITH_KNOTS('',6,(#1062,#1063,#1064,#1065,#1066,
    #1067,#1068,#1069,#1070,#1071,#1072,#1073,#1074,#1075,#1076,#1077,
    #1078,#1079,#1080,#1081,#1082,#1083),.UNSPECIFIED.,.F.,.F.,(7,5,5,5,
    7),(0.,0.249253325545,0.5,0.750746674455,1.),.UNSPECIFIED.);
#1062 = CARTESIAN_POINT('',(0.,-1.309629488189E-14));
#1063 = CARTESIAN_POINT('',(0.334812888811,-1.307770903298E-14));
#1064 = CARTESIAN_POINT('',(0.668974097934,-1.214460323164E-14));
#1065 = CARTESIAN_POINT('',(1.002509030619,-1.615734025927E-14));
#1066 = CARTESIAN_POINT('',(1.335472297387,-9.650702316823E-15));
#1067 = CARTESIAN_POINT('',(1.667943052553,-1.377051548304E-14));
#1068 = CARTESIAN_POINT('',(2.334046396854,-1.37520274013E-14));
#1069 = CARTESIAN_POINT('',(2.667683641459,-1.086333193094E-14));
#1070 = CARTESIAN_POINT('',(3.000985779036,-1.346275794666E-14));
#1071 = CARTESIAN_POINT('',(3.334062192648,-1.460674463658E-14));
#1072 = CARTESIAN_POINT('',(3.667033992924,-1.196254786452E-14));
#1073 = CARTESIAN_POINT('',(4.332966007076,-1.196494249756E-14));
#1074 = CARTESIAN_POINT('',(4.665937807353,-1.81740914481E-14));
#1075 = CARTESIAN_POINT('',(4.999014220963,-4.906536259522E-15));
#1076 = CARTESIAN_POINT('',(5.332316358542,-1.894327979327E-14));
#1077 = CARTESIAN_POINT('',(5.665953603146,-1.196475812792E-14));
#1078 = CARTESIAN_POINT('',(6.332056947447,-1.200531422534E-14));
#1079 = CARTESIAN_POINT('',(6.66452770261,-1.637803089421E-14));
#1080 = CARTESIAN_POINT('',(6.997490969385,-1.120211012565E-14));
#1081 = CARTESIAN_POINT('',(7.331025902064,-1.198086091541E-14));
#1082 = CARTESIAN_POINT('',(7.66518711119,-1.38358029742E-14));
#1083 = CARTESIAN_POINT('',(8.,-1.381707248616E-14));
#1084 = ( GEOMETRIC_REPRESENTATION_CONTEXT(2) 
PARAMETRIC_REPRESENTATION_CONTEXT() REPRESENTATION_CONTEXT('2D SPACE',''
  ) );
#1085 = FACE_BOUND('',#1086,.T.);
#1086 = EDGE_LOOP('',(#1087));
#1087 = ORIENTED_EDGE('',*,*,#1088,.F.);
#1088 = EDGE_CURVE('',#1089,#1089,#1091,.T.);
#1089 = VERTEX_POINT('',#1090);
#1090 = CARTESIAN_POINT('',(22.,0.,8.));
#1091 = SURFACE_CURVE('',#1092,(#1097,#1104),.PCURVE_S1.);
#1092 = CIRCLE('',#1093,22.);
#1093 = AXIS2_PLACEMENT_3D('',#1094,#1095,#1096);
#1094 = CARTESIAN_POINT('',(0.,0.,8.));
#1095 = DIRECTION('',(0.,0.,1.));
#1096 = DIRECTION('',(1.,0.,0.));
#1097 = PCURVE('',#114,#1098);
#1098 = DEFINITIONAL_REPRESENTATION('',(#1099),#1103);
#1099 = CIRCLE('',#1100,22.);
#1100 = AXIS2_PLACEMENT_2D('',#1101,#1102);
#1101 = CARTESIAN_POINT('',(1.250230978322E-15,-1.071707357638E-15));
#1102 = DIRECTION('',(1.,0.));
#1103 = ( GEOMETRIC_REPRESENTATION_CONTEXT(2) 
PARAMETRIC_REPRESENTATION_CONTEXT() REPRESENTATION_CONTEXT('2D SPACE',''
  ) );
#1104 = PCURVE('',#1105,#1110);
#1105 = CYLINDRICAL_SURFACE('',#1106,22.);
#1106 = AXIS2_PLACEMENT_3D('',#1107,#1108,#1109);
#1107 = CARTESIAN_POINT('',(0.,0.,8.));
#1108 = DIRECTION('',(-0.,-0.,-1.));
#1109 = DIRECTION('',(1.,0.,0.));
#1110 = DEFINITIONAL_REPRESENTATION('',(#1111),#1115);
#1111 = LINE('',#1112,#1113);
#1112 = CARTESIAN_POINT('',(-0.,0.));
#1113 = VECTOR('',#1114,1.);
#1114 = DIRECTION('',(-1.,0.));
#1115 = ( GEOMETRIC_REPRESENTATION_CONTEXT(2) 
PARAMETRIC_REPRESENTATION_CONTEXT() REPRESENTATION_CONTEXT('2D SPACE',''
  ) );
#1116 = ADVANCED_FACE('',(#1117),#186,.F.);
#1117 = FACE_BOUND('',#1118,.T.);
#1118 = EDGE_LOOP('',(#1119,#1120,#1121,#1122));
#1119 = ORIENTED_EDGE('',*,*,#167,.F.);
#1120 = ORIENTED_EDGE('',*,*,#719,.F.);
#1121 = ORIENTED_EDGE('',*,*,#853,.T.);
#1122 = ORIENTED_EDGE('',*,*,#1123,.T.);
#1123 = EDGE_CURVE('',#854,#170,#1124,.T.);
#1124 = SURFACE_CURVE('',#1125,(#1131,#1137),.PCURVE_S1.);
#1125 = B_SPLINE_CURVE_WITH_KNOTS('',2,(#1126,#1127,#1128,#1129,#1130),
  .UNSPECIFIED.,.F.,.F.,(3,1,1,3),(-0.4896,-1.279189600452E-14,8.,8.4896
    ),.UNSPECIFIED.);
#1126 = CARTESIAN_POINT('',(33.237087912088,-4.140306869097,8.4896));
#1127 = CARTESIAN_POINT('',(33.237087912088,-4.140306869097,8.2448));
#1128 = CARTESIAN_POINT('',(33.237087912088,-4.140306869097,4.));
#1129 = CARTESIAN_POINT('',(33.237087912088,-4.140306869097,-0.2448));
#1130 = CARTESIAN_POINT('',(33.237087912088,-4.140306869097,-0.4896));
#1131 = PCURVE('',#186,#1132);
#1132 = DEFINITIONAL_REPRESENTATION('',(#1133),#1136);
#1133 = B_SPLINE_CURVE_WITH_KNOTS('',1,(#1134,#1135),.UNSPECIFIED.,.F.,
  .F.,(2,2),(-1.279189600452E-14,8.),.PIECEWISE_BEZIER_KNOTS.);
#1134 = CARTESIAN_POINT('',(-4.309847172666,-50.0000002));
#1135 = CARTESIAN_POINT('',(-4.309847172666,-42.0000002));
#1136 = ( GEOMETRIC_REPRESENTATION_CONTEXT(2) 
PARAMETRIC_REPRESENTATION_CONTEXT() REPRESENTATION_CONTEXT('2D SPACE',''
  ) );
#1137 = PCURVE('',#563,#1138);
#1138 = DEFINITIONAL_REPRESENTATION('',(#1139),#1143);
#1139 = LINE('',#1140,#1141);
#1140 = CARTESIAN_POINT('',(0.,0.));
#1141 = VECTOR('',#1142,1.);
#1142 = DIRECTION('',(0.,1.));
#1143 = ( GEOMETRIC_REPRESENTATION_CONTEXT(2) 
PARAMETRIC_REPRESENTATION_CONTEXT() REPRESENTATION_CONTEXT('2D SPACE',''
  ) );
#1144 = ADVANCED_FACE('',(#1145),#563,.T.);
#1145 = FACE_BOUND('',#1146,.T.);
#1146 = EDGE_LOOP('',(#1147,#1148,#1170,#1171));
#1147 = ORIENTED_EDGE('',*,*,#1008,.T.);
#1148 = ORIENTED_EDGE('',*,*,#1149,.T.);
#1149 = EDGE_CURVE('',#985,#483,#1150,.T.);
#1150 = SURFACE_CURVE('',#1151,(#1157,#1164),.PCURVE_S1.);
#1151 = B_SPLINE_CURVE_WITH_KNOTS('',2,(#1152,#1153,#1154,#1155,#1156),
  .UNSPECIFIED.,.F.,.F.,(3,1,1,3),(-0.4896,-1.279189600452E-14,8.,8.4896
    ),.UNSPECIFIED.);
#1152 = CARTESIAN_POINT('',(34.420454545455,-6.342894361748,8.4896));
#1153 = CARTESIAN_POINT('',(34.420454545455,-6.342894361748,8.2448));
#1154 = CARTESIAN_POINT('',(34.420454545455,-6.342894361748,4.));
#1155 = CARTESIAN_POINT('',(34.420454545455,-6.342894361748,-0.2448));
#1156 = CARTESIAN_POINT('',(34.420454545455,-6.342894361748,-0.4896));
#1157 = PCURVE('',#563,#1158);
#1158 = DEFINITIONAL_REPRESENTATION('',(#1159),#1163);
#1159 = LINE('',#1160,#1161);
#1160 = CARTESIAN_POINT('',(8.,0.));
#1161 = VECTOR('',#1162,1.);
#1162 = DIRECTION('',(0.,1.));
#1163 = ( GEOMETRIC_REPRESENTATION_CONTEXT(2) 
PARAMETRIC_REPRESENTATION_CONTEXT() REPRESENTATION_CONTEXT('2D SPACE',''
  ) );
#1164 = PCURVE('',#499,#1165);
#1165 = DEFINITIONAL_REPRESENTATION('',(#1166),#1169);
#1166 = B_SPLINE_CURVE_WITH_KNOTS('',1,(#1167,#1168),.UNSPECIFIED.,.F.,
  .F.,(2,2),(-1.279189600452E-14,8.),.PIECEWISE_BEZIER_KNOTS.);
#1167 = CARTESIAN_POINT('',(-6.100952810541,-8.));
#1168 = CARTESIAN_POINT('',(-6.100952810541,9.714451465467E-16));
#1169 = ( GEOMETRIC_REPRESENTATION_CONTEXT(2) 
PARAMETRIC_REPRESENTATION_CONTEXT() REPRESENTATION_CONTEXT('2D SPACE',''
  ) );
#1170 = ORIENTED_EDGE('',*,*,#511,.F.);
#1171 = ORIENTED_EDGE('',*,*,#1123,.F.);
#1172 = ADVANCED_FACE('',(#1173),#499,.T.);
#1173 = FACE_BOUND('',#1174,.F.);
#1174 = EDGE_LOOP('',(#1175,#1176,#1198,#1199));
#1175 = ORIENTED_EDGE('',*,*,#482,.F.);
#1176 = ORIENTED_EDGE('',*,*,#1177,.F.);
#1177 = EDGE_CURVE('',#905,#387,#1178,.T.);
#1178 = SURFACE_CURVE('',#1179,(#1185,#1191),.PCURVE_S1.);
#1179 = B_SPLINE_CURVE_WITH_KNOTS('',2,(#1180,#1181,#1182,#1183,#1184),
  .UNSPECIFIED.,.F.,.F.,(3,1,1,3),(-0.4896,-1.280741833046E-14,8.,8.4896
    ),.UNSPECIFIED.);
#1180 = CARTESIAN_POINT('',(-6.342894361748,34.420454545455,8.4896));
#1181 = CARTESIAN_POINT('',(-6.342894361748,34.420454545455,8.2448));
#1182 = CARTESIAN_POINT('',(-6.342894361748,34.420454545455,4.));
#1183 = CARTESIAN_POINT('',(-6.342894361748,34.420454545455,-0.2448));
#1184 = CARTESIAN_POINT('',(-6.342894361748,34.420454545455,-0.4896));
#1185 = PCURVE('',#499,#1186);
#1186 = DEFINITIONAL_REPRESENTATION('',(#1187),#1190);
#1187 = B_SPLINE_CURVE_WITH_KNOTS('',1,(#1188,#1189),.UNSPECIFIED.,.F.,
  .F.,(2,2),(-1.280741833046E-14,8.),.PIECEWISE_BEZIER_KNOTS.);
#1188 = CARTESIAN_POINT('',(-1.753028823433,-8.));
#1189 = CARTESIAN_POINT('',(-1.753028823433,9.714451465467E-16));
#1190 = ( GEOMETRIC_REPRESENTATION_CONTEXT(2) 
PARAMETRIC_REPRESENTATION_CONTEXT() REPRESENTATION_CONTEXT('2D SPACE',''
  ) );
#1191 = PCURVE('',#440,#1192);
#1192 = DEFINITIONAL_REPRESENTATION('',(#1193),#1197);
#1193 = LINE('',#1194,#1195);
#1194 = CARTESIAN_POINT('',(8.,0.));
#1195 = VECTOR('',#1196,1.);
#1196 = DIRECTION('',(0.,1.));
#1197 = ( GEOMETRIC_REPRESENTATION_CONTEXT(2) 
PARAMETRIC_REPRESENTATION_CONTEXT() REPRESENTATION_CONTEXT('2D SPACE',''
  ) );
#1198 = ORIENTED_EDGE('',*,*,#984,.T.);
#1199 = ORIENTED_EDGE('',*,*,#1149,.T.);
#1200 = ADVANCED_FACE('',(#1201),#440,.F.);
#1201 = FACE_BOUND('',#1202,.F.);
#1202 = EDGE_LOOP('',(#1203,#1204,#1205,#1206));
#1203 = ORIENTED_EDGE('',*,*,#904,.T.);
#1204 = ORIENTED_EDGE('',*,*,#1177,.T.);
#1205 = ORIENTED_EDGE('',*,*,#386,.F.);
#1206 = ORIENTED_EDGE('',*,*,#1207,.F.);
#1207 = EDGE_CURVE('',#881,#358,#1208,.T.);
#1208 = SURFACE_CURVE('',#1209,(#1215,#1222),.PCURVE_S1.);
#1209 = B_SPLINE_CURVE_WITH_KNOTS('',2,(#1210,#1211,#1212,#1213,#1214),
  .UNSPECIFIED.,.F.,.F.,(3,1,1,3),(-0.4896,-1.280741833046E-14,8.,8.4896
    ),.UNSPECIFIED.);
#1210 = CARTESIAN_POINT('',(-4.140306869097,33.237087912088,8.4896));
#1211 = CARTESIAN_POINT('',(-4.140306869097,33.237087912088,8.2448));
#1212 = CARTESIAN_POINT('',(-4.140306869097,33.237087912088,4.));
#1213 = CARTESIAN_POINT('',(-4.140306869097,33.237087912088,-0.2448));
#1214 = CARTESIAN_POINT('',(-4.140306869097,33.237087912088,-0.4896));
#1215 = PCURVE('',#440,#1216);
#1216 = DEFINITIONAL_REPRESENTATION('',(#1217),#1221);
#1217 = LINE('',#1218,#1219);
#1218 = CARTESIAN_POINT('',(0.,0.));
#1219 = VECTOR('',#1220,1.);
#1220 = DIRECTION('',(0.,1.));
#1221 = ( GEOMETRIC_REPRESENTATION_CONTEXT(2) 
PARAMETRIC_REPRESENTATION_CONTEXT() REPRESENTATION_CONTEXT('2D SPACE',''
  ) );
#1222 = PCURVE('',#374,#1223);
#1223 = DEFINITIONAL_REPRESENTATION('',(#1224),#1227);
#1224 = B_SPLINE_CURVE_WITH_KNOTS('',1,(#1225,#1226),.UNSPECIFIED.,.F.,
  .F.,(2,2),(-1.280741833046E-14,8.),.PIECEWISE_BEZIER_KNOTS.);
#1225 = CARTESIAN_POINT('',(-3.544134461309,-50.0000002));
#1226 = CARTESIAN_POINT('',(-3.544134461309,-42.0000002));
#1227 = ( GEOMETRIC_REPRESENTATION_CONTEXT(2) 
PARAMETRIC_REPRESENTATION_CONTEXT() REPRESENTATION_CONTEXT('2D SPACE',''
  ) );
#1228 = ADVANCED_FACE('',(#1229),#374,.F.);
#1229 = FACE_BOUND('',#1230,.T.);
#1230 = EDGE_LOOP('',(#1231,#1232,#1233,#1234));
#1231 = ORIENTED_EDGE('',*,*,#357,.F.);
#1232 = ORIENTED_EDGE('',*,*,#1207,.F.);
#1233 = ORIENTED_EDGE('',*,*,#880,.T.);
#1234 = ORIENTED_EDGE('',*,*,#826,.T.);
#1235 = ADVANCED_FACE('',(#1236),#624,.F.);
#1236 = FACE_BOUND('',#1237,.T.);
#1237 = EDGE_LOOP('',(#1238,#1239,#1262,#1289));
#1238 = ORIENTED_EDGE('',*,*,#607,.F.);
#1239 = ORIENTED_EDGE('',*,*,#1240,.T.);
#1240 = EDGE_CURVE('',#608,#1241,#1243,.T.);
#1241 = VERTEX_POINT('',#1242);
#1242 = CARTESIAN_POINT('',(10.,0.,28.));
#1243 = SEAM_CURVE('',#1244,(#1248,#1255),.PCURVE_S1.);
#1244 = LINE('',#1245,#1246);
#1245 = CARTESIAN_POINT('',(10.,0.,-42.0000002));
#1246 = VECTOR('',#1247,1.);
#1247 = DIRECTION('',(0.,0.,1.));
#1248 = PCURVE('',#624,#1249);
#1249 = DEFINITIONAL_REPRESENTATION('',(#1250),#1254);
#1250 = LINE('',#1251,#1252);
#1251 = CARTESIAN_POINT('',(-0.,0.));
#1252 = VECTOR('',#1253,1.);
#1253 = DIRECTION('',(-0.,-1.));
#1254 = ( GEOMETRIC_REPRESENTATION_CONTEXT(2) 
PARAMETRIC_REPRESENTATION_CONTEXT() REPRESENTATION_CONTEXT('2D SPACE',''
  ) );
#1255 = PCURVE('',#624,#1256);
#1256 = DEFINITIONAL_REPRESENTATION('',(#1257),#1261);
#1257 = LINE('',#1258,#1259);
#1258 = CARTESIAN_POINT('',(-6.28318530718,0.));
#1259 = VECTOR('',#1260,1.);
#1260 = DIRECTION('',(-0.,-1.));
#1261 = ( GEOMETRIC_REPRESENTATION_CONTEXT(2) 
PARAMETRIC_REPRESENTATION_CONTEXT() REPRESENTATION_CONTEXT('2D SPACE',''
  ) );
#1262 = ORIENTED_EDGE('',*,*,#1263,.T.);
#1263 = EDGE_CURVE('',#1241,#1241,#1264,.T.);
#1264 = SURFACE_CURVE('',#1265,(#1270,#1277),.PCURVE_S1.);
#1265 = CIRCLE('',#1266,10.);
#1266 = AXIS2_PLACEMENT_3D('',#1267,#1268,#1269);
#1267 = CARTESIAN_POINT('',(-2.648593173732E-15,-2.22044604925E-15,28.)
  );
#1268 = DIRECTION('',(0.,0.,1.));
#1269 = DIRECTION('',(1.,4.669739647545E-16,-0.));
#1270 = PCURVE('',#624,#1271);
#1271 = DEFINITIONAL_REPRESENTATION('',(#1272),#1276);
#1272 = LINE('',#1273,#1274);
#1273 = CARTESIAN_POINT('',(-0.,-70.0000002));
#1274 = VECTOR('',#1275,1.);
#1275 = DIRECTION('',(-1.,-0.));
#1276 = ( GEOMETRIC_REPRESENTATION_CONTEXT(2) 
PARAMETRIC_REPRESENTATION_CONTEXT() REPRESENTATION_CONTEXT('2D SPACE',''
  ) );
#1277 = PCURVE('',#1278,#1283);
#1278 = PLANE('',#1279);
#1279 = AXIS2_PLACEMENT_3D('',#1280,#1281,#1282);
#1280 = CARTESIAN_POINT('',(-1.491752871861E-15,-8.980743193747E-16,28.)
  );
#1281 = DIRECTION('',(0.,0.,1.));
#1282 = DIRECTION('',(1.,0.,-0.));
#1283 = DEFINITIONAL_REPRESENTATION('',(#1284),#1288);
#1284 = CIRCLE('',#1285,10.);
#1285 = AXIS2_PLACEMENT_2D('',#1286,#1287);
#1286 = CARTESIAN_POINT('',(-1.156840301871E-15,-1.322371729876E-15));
#1287 = DIRECTION('',(1.,4.669739647545E-16));
#1288 = ( GEOMETRIC_REPRESENTATION_CONTEXT(2) 
PARAMETRIC_REPRESENTATION_CONTEXT() REPRESENTATION_CONTEXT('2D SPACE',''
  ) );
#1289 = ORIENTED_EDGE('',*,*,#1240,.F.);
#1290 = ADVANCED_FACE('',(#1291),#1105,.T.);
#1291 = FACE_BOUND('',#1292,.F.);
#1292 = EDGE_LOOP('',(#1293,#1316,#1338,#1339));
#1293 = ORIENTED_EDGE('',*,*,#1294,.T.);
#1294 = EDGE_CURVE('',#1089,#1295,#1297,.T.);
#1295 = VERTEX_POINT('',#1296);
#1296 = CARTESIAN_POINT('',(22.,0.,28.));
#1297 = SEAM_CURVE('',#1298,(#1302,#1309),.PCURVE_S1.);
#1298 = LINE('',#1299,#1300);
#1299 = CARTESIAN_POINT('',(22.,0.,8.));
#1300 = VECTOR('',#1301,1.);
#1301 = DIRECTION('',(0.,0.,1.));
#1302 = PCURVE('',#1105,#1303);
#1303 = DEFINITIONAL_REPRESENTATION('',(#1304),#1308);
#1304 = LINE('',#1305,#1306);
#1305 = CARTESIAN_POINT('',(-0.,0.));
#1306 = VECTOR('',#1307,1.);
#1307 = DIRECTION('',(-0.,-1.));
#1308 = ( GEOMETRIC_REPRESENTATION_CONTEXT(2) 
PARAMETRIC_REPRESENTATION_CONTEXT() REPRESENTATION_CONTEXT('2D SPACE',''
  ) );
#1309 = PCURVE('',#1105,#1310);
#1310 = DEFINITIONAL_REPRESENTATION('',(#1311),#1315);
#1311 = LINE('',#1312,#1313);
#1312 = CARTESIAN_POINT('',(-6.28318530718,0.));
#1313 = VECTOR('',#1314,1.);
#1314 = DIRECTION('',(-0.,-1.));
#1315 = ( GEOMETRIC_REPRESENTATION_CONTEXT(2) 
PARAMETRIC_REPRESENTATION_CONTEXT() REPRESENTATION_CONTEXT('2D SPACE',''
  ) );
#1316 = ORIENTED_EDGE('',*,*,#1317,.T.);
#1317 = EDGE_CURVE('',#1295,#1295,#1318,.T.);
#1318 = SURFACE_CURVE('',#1319,(#1324,#1331),.PCURVE_S1.);
#1319 = CIRCLE('',#1320,22.);
#1320 = AXIS2_PLACEMENT_3D('',#1321,#1322,#1323);
#1321 = CARTESIAN_POINT('',(0.,0.,28.));
#1322 = DIRECTION('',(0.,0.,1.));
#1323 = DIRECTION('',(1.,0.,0.));
#1324 = PCURVE('',#1105,#1325);
#1325 = DEFINITIONAL_REPRESENTATION('',(#1326),#1330);
#1326 = LINE('',#1327,#1328);
#1327 = CARTESIAN_POINT('',(-0.,-20.));
#1328 = VECTOR('',#1329,1.);
#1329 = DIRECTION('',(-1.,0.));
#1330 = ( GEOMETRIC_REPRESENTATION_CONTEXT(2) 
PARAMETRIC_REPRESENTATION_CONTEXT() REPRESENTATION_CONTEXT('2D SPACE',''
  ) );
#1331 = PCURVE('',#1278,#1332);
#1332 = DEFINITIONAL_REPRESENTATION('',(#1333),#1337);
#1333 = CIRCLE('',#1334,22.);
#1334 = AXIS2_PLACEMENT_2D('',#1335,#1336);
#1335 = CARTESIAN_POINT('',(1.491752871861E-15,8.980743193747E-16));
#1336 = DIRECTION('',(1.,0.));
#1337 = ( GEOMETRIC_REPRESENTATION_CONTEXT(2) 
PARAMETRIC_REPRESENTATION_CONTEXT() REPRESENTATION_CONTEXT('2D SPACE',''
  ) );
#1338 = ORIENTED_EDGE('',*,*,#1294,.F.);
#1339 = ORIENTED_EDGE('',*,*,#1088,.F.);
#1340 = ADVANCED_FACE('',(#1341,#1344),#1278,.T.);
#1341 = FACE_BOUND('',#1342,.T.);
#1342 = EDGE_LOOP('',(#1343));
#1343 = ORIENTED_EDGE('',*,*,#1317,.T.);
#1344 = FACE_BOUND('',#1345,.T.);
#1345 = EDGE_LOOP('',(#1346));
#1346 = ORIENTED_EDGE('',*,*,#1263,.F.);
#1347 = ( GEOMETRIC_REPRESENTATION_CONTEXT(3) 
GLOBAL_UNCERTAINTY_ASSIGNED_CONTEXT((#1351)) 
GLOBAL_UNIT_ASSIGNED_CONTEXT((#1348,#1349,#1350)) REPRESENTATION_CONTEXT
('Context #1','3D Context with UNIT and UNCERTAINTY') );
#1348 = ( LENGTH_UNIT() NAMED_UNIT(*) SI_UNIT(.MILLI.,.METRE.) );
#1349 = ( NAMED_UNIT(*) PLANE_ANGLE_UNIT() SI_UNIT($,.RADIAN.) );
#1350 = ( NAMED_UNIT(*) SI_UNIT($,.STERADIAN.) SOLID_ANGLE_UNIT() );
#1351 = UNCERTAINTY_MEASURE_WITH_UNIT(LENGTH_MEASURE(1.E-07),#1348,
  'distance_accuracy_value','confusion accuracy');
#1352 = PRODUCT_RELATED_PRODUCT_CATEGORY('part',$,(#7));
ENDSEC;
END-ISO-10303-21;
